<svg width="70" height="70" viewBox="0 0 70 70" fill="none" xmlns="http://www.w3.org/2000/svg">
<rect width="70" height="70" rx="24" fill="#695EF1"/>
<g clip-path="url(#clip0_226_1231)">
<path d="M54.84 24.2395C54.6371 23.7508 54.2487 23.3624 53.76 23.1595C53.5196 23.057 53.2614 23.0027 53.0001 22.9995H43.0005C42.4701 22.9995 41.9614 23.2102 41.5863 23.5853C41.2113 23.9603 41.0006 24.469 41.0006 24.9994C41.0006 25.5298 41.2113 26.0385 41.5863 26.4136C41.9614 26.7886 42.4701 26.9994 43.0005 26.9994H48.1803L37.0007 38.1789L30.421 31.5792C30.2351 31.3917 30.0139 31.2429 29.7702 31.1414C29.5264 31.0399 29.265 30.9876 29.001 30.9876C28.737 30.9876 28.4756 31.0399 28.2319 31.1414C27.9882 31.2429 27.767 31.3917 27.5811 31.5792L15.5816 43.5787C15.3941 43.7646 15.2453 43.9858 15.1438 44.2295C15.0423 44.4732 14.99 44.7346 14.99 44.9986C14.99 45.2627 15.0423 45.5241 15.1438 45.7678C15.2453 46.0115 15.3941 46.2327 15.5816 46.4186C15.7675 46.606 15.9887 46.7548 16.2324 46.8563C16.4761 46.9579 16.7375 47.0102 17.0015 47.0102C17.2655 47.0102 17.5269 46.9579 17.7706 46.8563C18.0143 46.7548 18.2355 46.606 18.4215 46.4186L29.001 35.819L35.5808 42.4187C35.7667 42.6062 35.9879 42.755 36.2316 42.8565C36.4753 42.958 36.7367 43.0103 37.0007 43.0103C37.2647 43.0103 37.5261 42.958 37.7698 42.8565C38.0135 42.755 38.2347 42.6062 38.4207 42.4187L51.0002 29.8192V34.999C51.0002 35.5294 51.2109 36.0381 51.5859 36.4132C51.961 36.7882 52.4697 36.999 53.0001 36.999C53.5305 36.999 54.0392 36.7882 54.4142 36.4132C54.7893 36.0381 55 35.5294 55 34.999V24.9994C54.9968 24.7381 54.9425 24.4799 54.84 24.2395Z" fill="white"/>
</g>
<defs>
<clipPath id="clip0_226_1231">
<rect width="40" height="40" fill="white" transform="translate(15 15)"/>
</clipPath>
</defs>
</svg>
