<svg width="40" height="40" viewBox="0 0 40 40" fill="none" xmlns="http://www.w3.org/2000/svg">
<path fill-rule="evenodd" clip-rule="evenodd" d="M12.293 8.09859C14.4258 6.03285 16.9947 5 20 5C23.0052 5 25.562 6.02112 27.6705 8.06338C29.7791 10.1056 30.8333 12.5821 30.8333 15.493C30.8333 16.9484 30.4576 18.615 29.7063 20.493C28.955 22.3709 28.0462 24.1314 26.9798 25.7746C25.9135 27.4178 24.8592 28.9554 23.8171 30.3873C22.7749 31.8193 21.8903 32.9577 21.1633 33.8028L20 35C19.7091 34.6714 19.3214 34.2371 18.8366 33.6972C18.3519 33.1573 17.4795 32.0775 16.2192 30.4577C14.9589 28.838 13.8562 27.2653 12.911 25.7394C11.9658 24.2136 11.1055 22.4883 10.3299 20.5634C9.55439 18.6385 9.16663 16.9484 9.16663 15.493C9.16663 12.5821 10.2087 10.1174 12.293 8.09859Z" stroke="white" stroke-width="2" stroke-linecap="round" stroke-linejoin="round"/>
<path d="M21.6666 15.8333C21.6666 16.7538 20.9204 17.5 20 17.5C19.0795 17.5 18.3333 16.7538 18.3333 15.8333C18.3333 14.9129 19.0795 14.1667 20 14.1667C20.9204 14.1667 21.6666 14.9129 21.6666 15.8333Z" stroke="white" stroke-width="2" stroke-linecap="round" stroke-linejoin="round"/>
</svg>
