<svg width="40" height="40" viewBox="0 0 40 40" fill="none" xmlns="http://www.w3.org/2000/svg">
<path d="M20 26.6663H20.0167M20 19.9997H20.0167M20 13.333H20.0167M35 23.333V29.6663C35 30.7709 34.1046 31.6663 33 31.6663H7C5.89543 31.6663 5 30.7709 5 29.6663V23.333C6.84095 23.333 8.33333 21.8406 8.33333 19.9997C8.33333 18.1587 6.84095 16.6663 5 16.6663V10.333C5 9.22844 5.89543 8.33301 7 8.33301H33C34.1046 8.33301 35 9.22844 35 10.333V16.6663C33.159 16.6663 31.6667 18.1587 31.6667 19.9997C31.6667 21.8406 33.159 23.333 35 23.333Z" stroke="white" stroke-width="2" stroke-linecap="round" stroke-linejoin="round"/>
</svg>
