<svg width="70" height="70" viewBox="0 0 70 70" fill="none" xmlns="http://www.w3.org/2000/svg">
<rect width="70" height="70" rx="24" fill="#695EF1"/>
<g clip-path="url(#clip0_226_1218)">
<path fill-rule="evenodd" clip-rule="evenodd" d="M20.9999 52.9132H49C51.252 52.9132 52.852 51.9312 53.824 50.5812C54.72 49.3352 55 47.9012 55 46.9132V34.9131C55 34.3827 54.7893 33.874 54.4142 33.4989C54.0391 33.1238 53.5304 32.9131 53 32.9131H47V22.9131C47 21.3218 46.3678 19.7957 45.2426 18.6704C44.1174 17.5452 42.5912 16.9131 40.9999 16.9131H20.9999C19.4086 16.9131 17.8825 17.5452 16.7572 18.6704C15.632 19.7957 14.9999 21.3218 14.9999 22.9131V46.9132C14.9999 47.8992 15.2799 49.3352 16.1759 50.5812C17.1479 51.9332 18.7479 52.9132 20.9999 52.9132ZM49 36.9131C49.5304 36.9131 50.0391 37.1238 50.4142 37.4989C50.7892 37.874 51 38.3827 51 38.9131V46.9132C51 47.4436 50.7892 47.9523 50.4142 48.3274C50.0391 48.7024 49.5304 48.9132 49 48.9132C48.4695 48.9132 47.9608 48.7024 47.5857 48.3274C47.2107 47.9523 47 47.4436 47 46.9132V38.9131C47 38.3827 47.2107 37.874 47.5857 37.4989C47.9608 37.1238 48.4695 36.9131 49 36.9131ZM28.9999 30.9131C28.9999 30.3827 29.2106 29.874 29.5857 29.4989C29.9608 29.1238 30.4695 28.9131 30.9999 28.9131C31.5303 28.9131 32.0391 29.1238 32.4141 29.4989C32.7892 29.874 32.9999 30.3827 32.9999 30.9131C32.9999 31.4436 32.7892 31.9523 32.4141 32.3273C32.0391 32.7024 31.5303 32.9131 30.9999 32.9131C30.4695 32.9131 29.9608 32.7024 29.5857 32.3273C29.2106 31.9523 28.9999 31.4436 28.9999 30.9131ZM30.9999 24.9131C29.4086 24.9131 27.8825 25.5452 26.7573 26.6705C25.632 27.7957 24.9999 29.3218 24.9999 30.9131C24.9999 32.5044 25.632 34.0305 26.7573 35.1558C27.8825 36.281 29.4086 36.9131 30.9999 36.9131C32.5912 36.9131 34.1173 36.281 35.2426 35.1558C36.3678 34.0305 36.9999 32.5044 36.9999 30.9131C36.9999 29.3218 36.3678 27.7957 35.2426 26.6705C34.1173 25.5452 32.5912 24.9131 30.9999 24.9131ZM24.9999 40.9131C24.4695 40.9131 23.9608 41.1239 23.5857 41.4989C23.2106 41.874 22.9999 42.3827 22.9999 42.9131C22.9999 43.4436 23.2106 43.9523 23.5857 44.3274C23.9608 44.7024 24.4695 44.9131 24.9999 44.9131H36.9999C37.5304 44.9131 38.0391 44.7024 38.4141 44.3274C38.7892 43.9523 38.9999 43.4436 38.9999 42.9131C38.9999 42.3827 38.7892 41.874 38.4141 41.4989C38.0391 41.1239 37.5304 40.9131 36.9999 40.9131H24.9999Z" fill="white"/>
</g>
<defs>
<clipPath id="clip0_226_1218">
<rect width="40" height="40" fill="white" transform="translate(15 15)"/>
</clipPath>
</defs>
</svg>
