<svg width="70" height="70" viewBox="0 0 70 70" fill="none" xmlns="http://www.w3.org/2000/svg">
<rect width="70" height="70" rx="24" fill="#C340DD"/>
<path fill-rule="evenodd" clip-rule="evenodd" d="M37.5996 17.0917C38.0056 17.2194 38.3603 17.4732 38.612 17.8164C38.8638 18.1595 38.9996 18.5741 38.9995 18.9997V28.9997H46.9996C47.3654 28.9995 47.7243 29.0997 48.0371 29.2893C48.35 29.4789 48.6048 29.7507 48.7739 30.0752C48.943 30.3996 49.0199 30.7641 48.9962 31.1292C48.9725 31.4943 48.8492 31.8458 48.6396 32.1457L34.6395 52.1457C34.3959 52.4947 34.0472 52.757 33.6442 52.8942C33.2412 53.0314 32.805 53.0365 32.3989 52.9086C31.9929 52.7808 31.6382 52.5267 31.3865 52.1834C31.1348 51.8401 30.9993 51.4254 30.9995 50.9997V40.9997H22.9995C22.6337 40.9998 22.2748 40.8996 21.962 40.71C21.6491 40.5204 21.3943 40.2486 21.2252 39.9242C21.0561 39.5998 20.9792 39.2352 21.0029 38.8701C21.0266 38.5051 21.1499 38.1535 21.3595 37.8537L35.3595 17.8537C35.6036 17.5052 35.9523 17.2437 36.3552 17.107C36.758 16.9703 37.1939 16.9657 37.5996 17.0937V17.0917Z" fill="white"/>
</svg>
