<svg width="70" height="70" viewBox="0 0 70 70" fill="none" xmlns="http://www.w3.org/2000/svg">
<rect width="70" height="70" rx="24" fill="#695EF1"/>
<path fill-rule="evenodd" clip-rule="evenodd" d="M15 35C15 23.9545 23.9545 15 35 15C46.0455 15 55 23.9545 55 35C55 46.0455 46.0455 55 35 55C23.9545 55 15 46.0455 15 35ZM36.8182 24.0909C36.8182 23.6087 36.6266 23.1462 36.2856 22.8053C35.9447 22.4643 35.4822 22.2727 35 22.2727C34.5178 22.2727 34.0553 22.4643 33.7144 22.8053C33.3734 23.1462 33.1818 23.6087 33.1818 24.0909V25.9091C31.7352 25.9091 30.3478 26.4838 29.3249 27.5067C28.3019 28.5296 27.7273 29.917 27.7273 31.3636C27.7273 32.8103 28.3019 34.1977 29.3249 35.2206C30.3478 36.2435 31.7352 36.8182 33.1818 36.8182H36.8182C37.3004 36.8182 37.7629 37.0097 38.1038 37.3507C38.4448 37.6917 38.6364 38.1542 38.6364 38.6364C38.6364 39.1186 38.4448 39.581 38.1038 39.922C37.7629 40.263 37.3004 40.4545 36.8182 40.4545H29.5455C29.0632 40.4545 28.6008 40.6461 28.2598 40.9871C27.9188 41.3281 27.7273 41.7905 27.7273 42.2727C27.7273 42.7549 27.9188 43.2174 28.2598 43.5584C28.6008 43.8994 29.0632 44.0909 29.5455 44.0909H33.1818V45.9091C33.1818 46.3913 33.3734 46.8538 33.7144 47.1947C34.0553 47.5357 34.5178 47.7273 35 47.7273C35.4822 47.7273 35.9447 47.5357 36.2856 47.1947C36.6266 46.8538 36.8182 46.3913 36.8182 45.9091V44.0909C37.5345 44.0909 38.2438 43.9498 38.9055 43.6757C39.5673 43.4016 40.1686 42.9998 40.6751 42.4933C41.1816 41.9868 41.5834 41.3855 41.8575 40.7237C42.1316 40.062 42.2727 39.3527 42.2727 38.6364C42.2727 37.9201 42.1316 37.2108 41.8575 36.549C41.5834 35.8872 41.1816 35.2859 40.6751 34.7794C40.1686 34.2729 39.5673 33.8711 38.9055 33.597C38.2438 33.3229 37.5345 33.1818 36.8182 33.1818H33.1818C32.6996 33.1818 32.2371 32.9903 31.8962 32.6493C31.5552 32.3083 31.3636 31.8458 31.3636 31.3636C31.3636 30.8814 31.5552 30.419 31.8962 30.078C32.2371 29.737 32.6996 29.5455 33.1818 29.5455H40.4545C40.9368 29.5455 41.3992 29.3539 41.7402 29.0129C42.0812 28.6719 42.2727 28.2095 42.2727 27.7273C42.2727 27.2451 42.0812 26.7826 41.7402 26.4416C41.3992 26.1006 40.9368 25.9091 40.4545 25.9091H36.8182V24.0909Z" fill="white"/>
</svg>
