<svg width="70" height="70" viewBox="0 0 70 70" fill="none" xmlns="http://www.w3.org/2000/svg">
<rect width="70" height="70" rx="24" fill="#C340DD"/>
<g clip-path="url(#clip0_110_472)">
<path fill-rule="evenodd" clip-rule="evenodd" d="M21 52.9132H49.0001C51.2521 52.9132 52.8521 51.9312 53.8241 50.5812C54.7201 49.3352 55.0001 47.9012 55.0001 46.9132V34.9131C55.0001 34.3827 54.7894 33.874 54.4143 33.4989C54.0392 33.1238 53.5305 32.9131 53.0001 32.9131H47.0001V22.9131C47.0001 21.3218 46.3679 19.7957 45.2427 18.6704C44.1175 17.5452 42.5914 16.9131 41.0001 16.9131H21C19.4087 16.9131 17.8826 17.5452 16.7574 18.6704C15.6321 19.7957 15 21.3218 15 22.9131V46.9132C15 47.8992 15.28 49.3352 16.176 50.5812C17.148 51.9332 18.748 52.9132 21 52.9132ZM49.0001 36.9131C49.5305 36.9131 50.0392 37.1238 50.4143 37.4989C50.7894 37.874 51.0001 38.3827 51.0001 38.9131V46.9132C51.0001 47.4436 50.7894 47.9523 50.4143 48.3274C50.0392 48.7024 49.5305 48.9132 49.0001 48.9132C48.4696 48.9132 47.9609 48.7024 47.5859 48.3274C47.2108 47.9523 47.0001 47.4436 47.0001 46.9132V38.9131C47.0001 38.3827 47.2108 37.874 47.5859 37.4989C47.9609 37.1238 48.4696 36.9131 49.0001 36.9131ZM29 30.9131C29 30.3827 29.2107 29.874 29.5858 29.4989C29.9609 29.1238 30.4696 28.9131 31 28.9131C31.5305 28.9131 32.0392 29.1238 32.4143 29.4989C32.7893 29.874 33 30.3827 33 30.9131C33 31.4436 32.7893 31.9523 32.4143 32.3273C32.0392 32.7024 31.5305 32.9131 31 32.9131C30.4696 32.9131 29.9609 32.7024 29.5858 32.3273C29.2107 31.9523 29 31.4436 29 30.9131ZM31 24.9131C29.4087 24.9131 27.8826 25.5452 26.7574 26.6705C25.6322 27.7957 25 29.3218 25 30.9131C25 32.5044 25.6322 34.0305 26.7574 35.1558C27.8826 36.281 29.4087 36.9131 31 36.9131C32.5913 36.9131 34.1175 36.281 35.2427 35.1558C36.3679 34.0305 37 32.5044 37 30.9131C37 29.3218 36.3679 27.7957 35.2427 26.6705C34.1175 25.5452 32.5913 24.9131 31 24.9131ZM25 40.9131C24.4696 40.9131 23.9609 41.1239 23.5858 41.4989C23.2107 41.874 23 42.3827 23 42.9131C23 43.4436 23.2107 43.9523 23.5858 44.3274C23.9609 44.7024 24.4696 44.9131 25 44.9131H37C37.5305 44.9131 38.0392 44.7024 38.4143 44.3274C38.7893 43.9523 39.0001 43.4436 39.0001 42.9131C39.0001 42.3827 38.7893 41.874 38.4143 41.4989C38.0392 41.1239 37.5305 40.9131 37 40.9131H25Z" fill="white"/>
</g>
<defs>
<clipPath id="clip0_110_472">
<rect width="40" height="40" fill="white" transform="translate(15 15)"/>
</clipPath>
</defs>
</svg>
