<svg width="70" height="70" viewBox="0 0 70 70" fill="none" xmlns="http://www.w3.org/2000/svg">
<rect width="70" height="70" rx="24" fill="#C340DD"/>
<g clip-path="url(#clip0_110_486)">
<path d="M54.84 24.239C54.6371 23.7503 54.2487 23.362 53.76 23.159C53.5196 23.0565 53.2614 23.0022 53.0001 22.999H43.0005C42.4701 22.999 41.9614 23.2097 41.5863 23.5848C41.2113 23.9598 41.0006 24.4685 41.0006 24.9989C41.0006 25.5294 41.2113 26.038 41.5863 26.4131C41.9614 26.7882 42.4701 26.9989 43.0005 26.9989H48.1803L37.0007 38.1784L30.421 31.5787C30.2351 31.3912 30.0139 31.2425 29.7702 31.1409C29.5264 31.0394 29.265 30.9871 29.001 30.9871C28.737 30.9871 28.4756 31.0394 28.2319 31.1409C27.9882 31.2425 27.767 31.3912 27.5811 31.5787L15.5816 43.5782C15.3941 43.7641 15.2453 43.9853 15.1438 44.229C15.0423 44.4727 14.99 44.7341 14.99 44.9981C14.99 45.2622 15.0423 45.5236 15.1438 45.7673C15.2453 46.011 15.3941 46.2322 15.5816 46.4181C15.7675 46.6055 15.9887 46.7543 16.2324 46.8559C16.4761 46.9574 16.7375 47.0097 17.0015 47.0097C17.2655 47.0097 17.5269 46.9574 17.7706 46.8559C18.0143 46.7543 18.2355 46.6055 18.4215 46.4181L29.001 35.8185L35.5808 42.4183C35.7667 42.6057 35.9879 42.7545 36.2316 42.856C36.4753 42.9576 36.7367 43.0098 37.0007 43.0098C37.2647 43.0098 37.5261 42.9576 37.7698 42.856C38.0135 42.7545 38.2347 42.6057 38.4207 42.4183L51.0002 29.8188V34.9985C51.0002 35.529 51.2109 36.0376 51.5859 36.4127C51.961 36.7878 52.4697 36.9985 53.0001 36.9985C53.5305 36.9985 54.0392 36.7878 54.4142 36.4127C54.7893 36.0376 55 35.529 55 34.9985V24.9989C54.9968 24.7376 54.9425 24.4794 54.84 24.239Z" fill="white"/>
</g>
<defs>
<clipPath id="clip0_110_486">
<rect width="40" height="40" fill="white" transform="translate(15 15)"/>
</clipPath>
</defs>
</svg>
