<svg width="24" height="25" viewBox="0 0 24 25" fill="none" xmlns="http://www.w3.org/2000/svg">
<path fill-rule="evenodd" clip-rule="evenodd" d="M7.37584 5.35915C8.65549 4.11971 10.1969 3.5 12 3.5C13.8031 3.5 15.3372 4.11267 16.6023 5.33803C17.8675 6.56339 18.5 8.04929 18.5 9.79577C18.5 10.669 18.2746 11.669 17.8238 12.7958C17.373 13.9225 16.8277 14.9789 16.1879 15.9648C15.5481 16.9507 14.9156 17.8732 14.2903 18.7324C13.665 19.5916 13.1342 20.2746 12.698 20.7817L12 21.5C11.8255 21.3028 11.5928 21.0423 11.302 20.7183C11.0112 20.3944 10.4877 19.7465 9.73154 18.7746C8.97539 17.8028 8.31376 16.8592 7.74664 15.9437C7.17953 15.0282 6.66331 13.993 6.19799 12.838C5.73266 11.6831 5.5 10.669 5.5 9.79577C5.5 8.04929 6.12527 6.57043 7.37584 5.35915Z" stroke="black" stroke-width="2" stroke-linecap="round" stroke-linejoin="round"/>
<path d="M13 10C13 10.5523 12.5523 11 12 11C11.4477 11 11 10.5523 11 10C11 9.44772 11.4477 9 12 9C12.5523 9 13 9.44772 13 10Z" stroke="black" stroke-width="2" stroke-linecap="round" stroke-linejoin="round"/>
</svg>
