<svg width="197" height="67" viewBox="0 0 197 67" fill="none" xmlns="http://www.w3.org/2000/svg">
<g clip-path="url(#clip0_31_568)">
<path d="M0.745025 62.9131L0.342285 61.5844C0.604066 61.4837 27.1245 53.0483 27.1245 33.4999C27.1245 13.9515 0.604066 5.49602 0.342285 5.41549L0.745025 4.02637C1.02694 4.02637 28.534 12.8644 28.534 33.4597C28.534 54.0549 1.02694 62.8326 0.745025 62.9131Z" fill="#1D1D1B"/>
<path d="M0.745025 62.9131L0.342285 61.5844C0.604066 61.4837 27.1245 53.0483 27.1245 33.4999C27.1245 13.9515 0.604066 5.49602 0.342285 5.41549L0.745025 4.02637C1.02694 4.02637 28.534 12.8644 28.534 33.4597C28.534 54.0549 1.02694 62.8326 0.745025 62.9131Z" fill="#B51A1C"/>
<path d="M32.9843 62.9131C32.7024 62.9131 5.21545 54.075 5.21545 33.4999C5.21545 12.9248 32.7024 4.14716 32.9843 4.02637L33.4072 5.37523C33.1454 5.37523 6.62504 13.9113 6.62504 33.5603C6.62504 53.2094 33.1454 61.5441 33.4072 61.7454L32.9843 62.9131Z" fill="#B51A1C"/>
<path d="M0.402739 58.9872C4.14369 57.7654 7.73154 56.1171 11.0955 54.075L12.3037 53.3099L11.2163 52.3436C8.6603 49.9248 6.61062 47.0222 5.18637 43.8046C3.76212 40.5869 2.99169 37.1184 2.91986 33.6005C2.97839 30.0656 3.74239 26.5779 5.16704 23.3421C6.5917 20.1062 8.64833 17.1874 11.2163 14.7568L12.3037 13.6898L11.0955 12.9247C7.73693 10.8828 4.1475 9.24737 0.402739 8.05273L0 9.3412C3.51855 10.5553 6.89456 12.1484 10.0685 14.0924C4.76454 19.1781 1.68799 26.1547 1.51027 33.4998C1.58342 37.1515 2.37708 40.7528 3.84572 44.097C5.31435 47.4412 7.42906 50.4626 10.0685 52.9878C6.89711 54.9101 3.51977 56.47 0 57.6384L0.402739 58.9872Z" fill="#B0B3B3"/>
<path d="M32.2192 33.4998C32.0627 26.1664 29.0158 19.1914 23.7415 14.0924C26.9177 12.1791 30.294 10.6196 33.81 9.44186L33.3469 8.05273C29.5994 9.2665 26.0098 10.9223 22.6541 12.9851L21.4459 13.7502L22.5132 14.797C25.0726 17.2186 27.1256 20.1241 28.5532 23.345C29.9808 26.5659 30.7546 30.0381 30.8298 33.5602C30.7573 37.0858 29.9848 40.5619 28.5571 43.7864C27.1294 47.0109 25.0749 49.9197 22.5132 52.3436L21.4459 53.3905L22.6541 54.1555C26.0181 56.1976 29.6059 57.8459 33.3469 59.0678L33.7496 57.7189C30.232 56.5537 26.8551 55.0007 23.6811 53.0885C26.3253 50.547 28.4408 47.508 29.9061 44.1463C31.3714 40.7846 32.1575 37.1664 32.2192 33.4998Z" fill="#B0B3B3"/>
<path d="M15.7873 18.1189C13.6465 20.0605 11.9258 22.4195 10.731 25.0509C9.53627 27.6822 8.89275 30.5301 8.84009 33.4194C8.89193 36.3059 9.53517 39.1511 10.7301 41.7792C11.925 44.4074 13.6462 46.7627 15.7873 48.6997C16.13 49.0624 16.493 49.4052 16.8747 49.7265C17.2372 49.4044 17.5997 49.0823 17.942 48.7199C20.0828 46.7783 21.8035 44.4192 22.9983 41.7879C24.1931 39.1566 24.8366 36.3087 24.8893 33.4194C24.839 30.5297 24.1965 27.681 23.0016 25.0494C21.8067 22.4177 20.0847 20.059 17.942 18.1189C17.5997 17.7565 17.2372 17.4344 16.8747 17.1123C16.4932 17.4267 16.1302 17.7628 15.7873 18.1189ZM23.4797 33.4194C23.4084 36.1276 22.7839 38.7927 21.6446 41.2508C20.5053 43.7089 18.8752 45.9081 16.8546 47.7133C14.8395 45.9048 13.2145 43.7045 12.0788 41.2468C10.9432 38.7891 10.3208 36.1257 10.2497 33.4194C10.3174 30.7105 10.9403 28.0443 12.0799 25.5857C13.2194 23.1271 14.8513 20.9284 16.8747 19.1255C18.8996 20.9432 20.5303 23.1565 21.6663 25.6288C22.8023 28.1011 23.4195 30.7799 23.4797 33.4999V33.4194Z" fill="#B0B3B3"/>
<path d="M16.8747 57.1152L15.6665 57.9608C10.9121 61.1752 5.76112 63.7602 0.342285 65.6513L0.745025 67.0001C6.46201 65.0214 11.8819 62.2715 16.8546 58.8265C21.8273 62.2715 27.2472 65.0214 32.9642 67.0001L33.3871 65.6513C27.9892 63.7554 22.8588 61.1705 18.1232 57.9608L16.8747 57.1152Z" fill="#B0B3B3"/>
<path d="M16.8747 9.88492C17.2775 9.60307 17.6802 9.30108 18.083 9.03936C22.8283 5.80438 27.9812 3.21165 33.4072 1.32873L32.9843 0C27.2673 1.97871 21.8474 4.72868 16.8747 8.17368C11.8958 4.72705 6.46901 1.97703 0.745025 0L0.342285 1.32873C5.7683 3.21165 10.9211 5.80438 15.6665 9.03936L16.8747 9.88492Z" fill="#B0B3B3"/>
<path d="M65.2841 39.7414C64.8543 42.2324 63.5274 44.4799 61.5538 46.0599C59.5802 47.6399 57.0964 48.443 54.5712 48.3177C46.5164 48.3177 42.489 41.7546 42.489 33.6011C42.489 25.7696 46.5164 18.6831 54.7524 18.6831C57.2934 18.5227 59.8009 19.3307 61.7699 20.9444C63.739 22.5581 65.0234 24.8577 65.3646 27.3802H61.7198C61.3923 25.7505 60.486 24.2942 59.1684 23.2803C57.8508 22.2664 56.2107 21.7634 54.5511 21.864C48.6107 21.864 46.1741 27.6621 46.1741 33.5004C46.1741 39.3388 48.4898 45.1167 54.7122 45.1167C56.3137 45.1571 57.8807 44.6476 59.1521 43.6732C60.4236 42.6988 61.3227 41.3182 61.6997 39.7615L65.2841 39.7414Z" fill="#B51A1C"/>
<path d="M91.0796 33.3385C91.0796 41.2706 86.9112 48.337 78.4134 48.337C70.4794 48.3169 66.0493 41.7739 66.0493 33.4995C66.0493 25.2252 70.5801 18.6621 78.7356 18.6621C86.3272 18.6621 91.0796 24.7622 91.0796 33.3385ZM69.7948 33.3385C69.7948 39.5795 72.7751 45.0353 78.5745 45.0353C84.8371 45.0353 87.3341 39.5191 87.3341 33.3586C87.3341 27.1982 84.5753 21.9235 78.5342 21.9235C72.4931 21.9235 69.7948 27.2183 69.7948 33.3788V33.3385Z" fill="#B51A1C"/>
<path d="M116.15 35.6342C116.15 30.2791 116.15 24.8232 116.331 21.7833H116.17C115.022 26.4741 110.653 38.8554 107.572 47.9552H104.37C102.034 40.5666 97.5033 26.6754 96.3152 21.7833H96.1944C96.4159 25.1051 96.4964 31.5071 96.4964 36.4597V47.9753H93.1134V19.0654H98.4497C101.511 28.0243 105.256 39.5802 106.182 43.2241C106.807 40.466 111.237 27.7827 114.398 19.0654H119.594V47.935H116.15V35.6342Z" fill="#B51A1C"/>
<path d="M125.473 19.0654V47.935H121.889V19.0654H125.473Z" fill="#B51A1C"/>
<path d="M150.504 39.7411C150.069 42.2338 148.739 44.4816 146.762 46.0613C144.785 47.641 142.298 48.4434 139.771 48.3175C131.716 48.3175 127.688 41.7544 127.688 33.6008C127.688 25.7694 131.716 18.6828 139.952 18.6828C142.49 18.5277 144.992 19.3381 146.957 20.9513C148.921 22.5645 150.203 24.8611 150.544 27.38H147C146.668 25.7522 145.761 24.2984 144.444 23.2853C143.128 22.2721 141.49 21.7674 139.831 21.8637C133.79 21.8637 131.454 27.6618 131.454 33.5002C131.454 39.3385 133.75 45.1164 139.972 45.1164C141.584 45.169 143.164 44.6624 144.445 43.6827C145.726 42.7029 146.629 41.3103 147 39.7411H150.504Z" fill="#B51A1C"/>
<path d="M156.001 35.2115V47.935H152.457V19.0654H162.989C168.526 19.0654 171.486 22.2866 171.486 26.7962C171.608 28.2806 171.219 29.7621 170.384 30.9957C169.549 32.2292 168.319 33.1412 166.895 33.5808C169.09 34.2049 170.923 35.9765 170.923 40.9693V42.2779C170.795 44.1914 170.917 46.1133 171.285 47.9954H167.902C167.435 45.9638 167.279 43.8731 167.439 41.7947V41.1706C167.439 37.1442 166.352 35.2719 161.519 35.2719L156.001 35.2115ZM156.001 31.9903H161.861C165.989 31.9903 167.902 30.3395 167.902 27.0982C167.902 23.8569 166.029 22.2866 162.364 22.2866H156.001V31.9903Z" fill="#B51A1C"/>
<path d="M197 33.3385C197 41.2706 192.852 48.337 184.354 48.337C176.42 48.337 171.99 41.7739 171.99 33.4995C171.99 25.2252 176.501 18.6621 184.656 18.6621C192.248 18.6621 197 24.7622 197 33.3385ZM175.735 33.3385C175.735 39.5795 178.716 45.0353 184.515 45.0353C190.778 45.0353 193.255 39.5191 193.255 33.3586C193.255 27.1982 190.435 21.8833 184.515 21.8833C178.595 21.8833 175.735 27.2183 175.735 33.3788V33.3385Z" fill="#B51A1C"/>
</g>
<defs>
<clipPath id="clip0_31_568">
<rect width="197" height="67" fill="white"/>
</clipPath>
</defs>
</svg>
