<svg width="162" height="43" viewBox="0 0 162 43" fill="none" xmlns="http://www.w3.org/2000/svg">
<g clip-path="url(#clip0_31_611)">
<path d="M30.1492 16.1546C33.669 16.1546 36.5223 13.3106 36.5223 9.8024C36.5223 6.29418 33.669 3.4502 30.1492 3.4502C26.6295 3.4502 23.7761 6.29418 23.7761 9.8024C23.7761 13.3106 26.6295 16.1546 30.1492 16.1546Z" fill="url(#paint0_radial_31_611)"/>
<path d="M6.37311 37.806C9.89288 37.806 12.7462 34.962 12.7462 31.4538C12.7462 27.9455 9.89288 25.1016 6.37311 25.1016C2.85334 25.1016 0 27.9455 0 31.4538C0 34.962 2.85334 37.806 6.37311 37.806Z" fill="url(#paint1_radial_31_611)"/>
<path d="M23.3346 32.4129C23.6774 31.4898 23.9234 30.4032 24.093 29.4114H24.0837H24.0706H24.0576H24.0315H24.0184H24.0073H24.0054H23.9924H23.9793H23.9663H23.901L23.888 29.4133H23.875H23.8619H23.8582H23.8358H23.8302H23.8228H23.8097H23.7967H23.7706H23.7576H23.7557H23.7184H23.7054H23.6923H23.6681H23.6551H23.6532H23.642H23.629H23.6159H23.5638H23.5507H23.5377H23.5153H23.5116H23.4985H23.4855H23.4743H23.4613H23.4482H23.4352H23.4091H23.396H23.3867H23.383H23.37H23.3569H23.3439H23.3308H23.3178H23.3047H23.2973H23.2917H23.2786H23.2656H23.2526C22.5351 29.4133 21.8382 29.3705 21.1617 29.2944C17.9882 28.9303 15.2974 27.7453 13.2848 25.8508C11.2722 23.9563 9.93238 21.3467 9.46279 18.1316C9.36402 17.4629 9.30439 16.7664 9.28203 16.0458C9.27457 15.7764 9.27085 15.5034 9.27457 15.2285C7.11853 15.613 4.99043 16.4265 3.01514 17.3422L3.35615 18.0796C5.16187 17.2419 6.87255 16.6345 8.477 16.2315C8.50309 16.9299 8.56459 17.606 8.65963 18.2579C9.15718 21.6569 10.5827 24.4244 12.722 26.4396C14.8632 28.4549 17.7124 29.7142 21.0592 30.0968C21.717 30.1711 22.3935 30.2138 23.0867 30.2194C22.6916 31.9987 22.0357 33.8784 21.0946 35.8212L21.8289 36.1704C22.4513 34.8832 22.9544 33.6221 23.342 32.3943H23.3327L23.3346 32.4129Z" fill="url(#paint2_radial_31_611)"/>
<path d="M8.68392 12.3325C8.95785 12.2786 9.24296 12.2247 9.52435 12.1764C9.56721 11.8978 9.6138 11.6155 9.66225 11.3425H9.65852C9.69952 11.1122 9.74424 10.88 9.79269 10.646L9.79828 10.6218C9.86909 10.2689 9.93804 9.95875 9.99954 9.721C10.4971 7.63889 11.2611 5.42119 12.3177 3.0809L11.5798 2.75586C10.171 5.87996 9.26905 8.79975 8.81623 11.4836C6.08809 11.9851 3.1736 12.9565 0.14917 14.4406L0.503232 15.165C3.35995 13.7626 6.11045 12.8302 8.68765 12.3287L8.68392 12.3325Z" fill="url(#paint3_radial_31_611)"/>
<path d="M13.0725 8.87756C12.8526 9.46635 12.4463 11.0934 12.3103 11.8995H12.314H12.3271H12.3401H12.3532H12.3662H12.3793H12.3886H12.3923H12.4053H12.4184H12.4314H12.4445H12.4575H12.4706H12.478H12.4836H12.5097H12.5227H12.5451H12.5749H12.588H12.601H12.6141H12.6271H12.6401H12.6532H12.6569H12.6793H12.6923H12.7054H12.7296H12.7575H12.7706H12.7836H12.8079H12.8209H12.8339H12.847H12.86H12.8731H12.8861H12.8992H12.9122H12.9215H12.9253H12.9383H12.9513H12.9644H12.9774H12.9905H13.1451C13.8626 11.8995 14.5595 11.9404 15.236 12.0184C18.4095 12.3824 21.1004 13.5674 23.1129 15.4601C25.1236 17.3546 26.4653 19.9642 26.9349 23.1793C27.0672 24.082 27.1306 25.0311 27.1213 26.0267V26.0991C29.2699 25.6886 31.4091 24.8844 33.3826 23.9687L33.0415 23.2313C31.2358 24.069 29.5252 24.6782 27.9207 25.0794C27.8946 24.381 27.835 23.705 27.7381 23.053C27.2405 19.654 25.815 16.8865 23.6757 14.8713C21.5345 12.8561 18.6853 11.5968 15.3385 11.2141C14.6807 11.138 14.0042 11.0971 13.311 11.0897C13.7061 9.31033 14.3639 7.43067 15.3031 5.48786L14.5688 5.13867C13.9502 6.4184 13.4489 7.67213 13.0613 8.89242H13.0762L13.0725 8.87756Z" fill="url(#paint4_radial_31_611)"/>
<path d="M24.3466 25.6383C24.3298 25.2148 24.2963 24.8006 24.246 24.3957C23.9236 21.8307 22.9322 19.6483 21.3613 18.0175C19.7904 16.3849 17.6437 15.3095 15.0106 14.9547C14.3248 14.8618 13.6036 14.8191 12.8526 14.8284H12.8396H12.8266H12.821H12.8135H12.8005H12.7632H12.7502H12.7241H12.711H12.7017H12.6998H12.6738H12.6626H12.6495H12.6104H12.5973H12.5824C12.4017 14.834 12.2172 14.8414 12.0327 14.8525C12.0327 14.9881 12.0327 15.1237 12.0327 15.2574V15.2835V15.2872V15.3132V15.3373V15.3485V15.3633V15.4005V15.4116V15.4469V15.4618V15.4655V15.5082V15.5119V15.5249V15.5379V15.5509V15.5751V15.5881V15.6011V15.6141V15.6178V15.6271V15.6401V15.6438V15.6512C12.0495 16.0803 12.083 16.4982 12.1352 16.9049C12.4576 19.47 13.449 21.6524 15.0199 23.2831C16.5908 24.9158 18.7375 25.9912 21.3706 26.346C22.0769 26.4407 22.8167 26.4834 23.5919 26.4704H23.6292C23.8658 26.4648 24.1044 26.4555 24.3466 26.4425C24.3485 26.1676 24.3466 25.8965 24.3336 25.629L24.3466 25.6383ZM21.5011 25.5491C19.058 25.2204 17.0716 24.2285 15.6236 22.7259C14.1757 21.2215 13.2626 19.1969 12.9607 16.8065C12.9123 16.4276 12.8806 16.0394 12.8638 15.6438C13.5701 15.6364 14.2484 15.6772 14.8932 15.7627C17.3362 16.0914 19.3227 17.0832 20.7706 18.5859C22.2185 20.0903 23.1316 22.1149 23.4335 24.5053C23.482 24.8842 23.5136 25.2724 23.5285 25.668C22.8204 25.6754 22.144 25.6364 21.4992 25.5491H21.5011Z" fill="url(#paint5_radial_31_611)"/>
<path d="M35.8945 26.1474C33.0322 27.5515 30.0133 28.5879 26.8752 29.1396C26.3926 32.2897 25.3882 35.3265 24.0781 38.2296L24.8161 38.5546C26.2249 35.4305 27.1249 32.5107 27.5777 29.8268C30.3059 29.3253 33.2222 28.3539 36.2467 26.8699L35.8926 26.1455L35.8945 26.1474Z" fill="url(#paint6_radial_31_611)"/>
<path d="M34.905 25.3192L34.564 24.5874C31.5358 26.0138 28.7257 26.8849 26.1746 27.2731C26.2472 26.0695 26.2118 24.9198 26.0721 23.837C25.6845 20.8671 24.5179 18.3745 22.688 16.5264C20.8581 14.6783 18.3722 13.484 15.3477 13.1088C14.0377 12.9472 12.6215 12.9435 11.1158 13.1051C11.4121 10.3488 12.2804 7.3101 13.7973 4.08013L13.0612 3.74023C11.4698 7.12436 10.5735 10.3153 10.2865 13.2091C7.61055 13.5954 4.66252 14.4963 1.48901 15.9915L1.83003 16.7233C4.85819 15.2968 7.66832 14.4257 10.2194 14.0375C10.1486 15.2411 10.1822 16.3908 10.3219 17.4736C10.7095 20.4436 11.8761 22.9362 13.706 24.7843C15.5359 26.6323 18.0218 27.8266 21.0463 28.2018C22.3563 28.3634 23.7725 28.3671 25.2782 28.2055C24.9819 30.9619 24.1136 34.0005 22.5967 37.2305L23.3328 37.5704C24.9242 34.1863 25.8205 30.9953 26.1075 28.1015C28.7834 27.7152 31.7315 26.8144 34.905 25.3192ZM21.1562 27.3957C18.3163 27.0447 15.9906 25.9321 14.2874 24.2122C12.5842 22.4923 11.4959 20.1557 11.1307 17.3622C10.989 16.2831 10.9611 15.1352 11.0412 13.9298C12.5376 13.7589 13.9408 13.757 15.2341 13.9168C18.074 14.2678 20.3996 15.3804 22.1029 17.1003C23.8061 18.8202 24.8944 21.1568 25.2596 23.9503C25.4012 25.0294 25.4292 26.1773 25.349 27.3827C23.8527 27.5536 22.4495 27.5554 21.1562 27.3957Z" fill="url(#paint7_radial_31_611)"/>
<path d="M46.3317 6.43616C46.3317 5.47033 46.5031 4.60293 46.8479 3.83027C47.1926 3.0576 47.6492 2.43352 48.2194 1.95618C48.7896 1.47883 49.4251 1.11665 50.1239 0.869617C50.8227 0.622586 51.555 0.5 52.3191 0.5C53.4707 0.5 54.5403 0.74703 55.5298 1.23923V3.02417C54.723 2.46696 53.7539 2.18835 52.6247 2.18835C51.4302 2.18835 50.3978 2.54868 49.5257 3.26563C48.6536 3.98443 48.2138 5.04127 48.2026 6.4343C48.2026 7.31284 48.4281 8.07064 48.8809 8.70215C49.3319 9.33552 49.8872 9.79057 50.5432 10.0692C51.1991 10.3478 51.9035 10.4871 52.6564 10.4871C53.862 10.4871 54.846 10.1973 55.61 9.61784V11.4362C54.5981 11.9303 53.5061 12.1754 52.334 12.1754C51.5811 12.1754 50.8544 12.0547 50.1556 11.8132C49.4568 11.5718 48.8157 11.2207 48.2343 10.7601C47.6529 10.2995 47.1908 9.69399 46.846 8.94175C46.5013 8.19137 46.3298 7.35556 46.3298 6.43244L46.3317 6.43616Z" fill="url(#paint8_radial_31_611)"/>
<path d="M57.4119 8.51094C57.1585 7.82557 57.0317 7.10119 57.0317 6.33967C57.0317 5.57815 57.1585 4.85377 57.4119 4.1684C57.6653 3.48303 58.0268 2.86267 58.502 2.31103C58.9754 1.75939 59.5996 1.3192 60.3748 0.992299C61.15 0.665402 62.0147 0.501953 62.9725 0.501953C63.9304 0.501953 64.7931 0.665402 65.5628 0.992299C66.3324 1.3192 66.9566 1.75939 67.4356 2.31103C67.9145 2.86267 68.2797 3.48303 68.5332 4.1684C68.7866 4.85563 68.9114 5.57815 68.9114 6.33967C68.9114 7.10119 68.7847 7.82557 68.5332 8.51094C68.2797 9.19816 67.9145 9.81667 67.4356 10.3683C66.9566 10.9199 66.3324 11.3601 65.5628 11.687C64.7931 12.0139 63.9304 12.1774 62.9725 12.1774C62.0147 12.1774 61.1482 12.0139 60.3748 11.687C59.5996 11.3601 58.9754 10.9199 58.502 10.3683C58.0287 9.81667 57.6653 9.19631 57.4119 8.51094ZM65.982 9.26689C66.6864 8.47379 67.0386 7.49681 67.0386 6.33967C67.0386 5.18253 66.6864 4.20555 65.982 3.41245C65.2776 2.61936 64.2732 2.22188 62.9725 2.22188C61.6718 2.22188 60.6804 2.61936 59.9705 3.41245C59.2605 4.20555 58.9045 5.18253 58.9045 6.33967C58.9045 7.49681 59.2586 8.47379 59.9705 9.26689C60.6804 10.06 61.6811 10.4575 62.9725 10.4575C64.2639 10.4575 65.2776 10.06 65.982 9.26689Z" fill="url(#paint9_radial_31_611)"/>
<path d="M81.5162 0.709961H83.1598V11.9693H81.3205V4.08666L77.765 9.4266H76.6562L73.0895 4.06809V11.9693H71.2502V0.709961H72.9069L77.2115 7.17733L81.5162 0.709961Z" fill="url(#paint10_radial_31_611)"/>
<path d="M86.2271 0.709961H88.0663V11.9693H86.2271V0.709961Z" fill="url(#paint11_radial_31_611)"/>
<path d="M90.4403 6.43616C90.4403 5.47033 90.6118 4.60293 90.9565 3.83027C91.3013 3.0576 91.7578 2.43352 92.328 1.95618C92.8983 1.47883 93.5337 1.11665 94.2325 0.869617C94.9313 0.622586 95.6637 0.5 96.4277 0.5C97.5793 0.5 98.649 0.74703 99.6385 1.23923V3.02417C98.8316 2.46696 97.8626 2.18835 96.7333 2.18835C95.5388 2.18835 94.5065 2.54868 93.6343 3.26563C92.7622 3.98443 92.3225 5.04127 92.3113 6.4343C92.3113 7.31284 92.5368 8.07064 92.9896 8.70215C93.4405 9.33552 93.9959 9.79057 94.6518 10.0692C95.3078 10.3478 96.0122 10.4871 96.765 10.4871C97.9707 10.4871 98.9546 10.1973 99.7186 9.61784V11.4362C98.7067 11.9303 97.6147 12.1754 96.4426 12.1754C95.6898 12.1754 94.963 12.0547 94.2642 11.8132C93.5654 11.5718 92.9244 11.2207 92.343 10.7601C91.7615 10.2995 91.2994 9.69399 90.9547 8.94175C90.6099 8.19137 90.4385 7.35556 90.4385 6.43244L90.4403 6.43616Z" fill="url(#paint12_radial_31_611)"/>
<path d="M103.867 11.9693H102.027V0.709961H106.546C107.105 0.709961 107.631 0.769397 108.119 0.886411C108.609 1.00528 109.069 1.19473 109.498 1.45662C109.929 1.72037 110.268 2.08627 110.516 2.55805C110.763 3.02982 110.886 3.58703 110.886 4.23154C110.886 5.17508 110.633 5.91803 110.128 6.45853C109.623 7.00088 108.96 7.36678 108.143 7.55995L111.758 11.9675H109.548L106.155 7.75311H103.868V11.9675L103.867 11.9693ZM103.867 2.3816V6.12977H106.626C107.314 6.12977 107.884 5.9849 108.337 5.69515C108.788 5.4054 109.015 4.92805 109.015 4.26311C109.015 3.59817 108.79 3.11897 108.337 2.82365C107.886 2.52833 107.314 2.3816 106.626 2.3816H103.867Z" fill="url(#paint13_radial_31_611)"/>
<path d="M113.171 8.51094C112.918 7.82557 112.791 7.10119 112.791 6.33967C112.791 5.57815 112.918 4.85377 113.171 4.1684C113.425 3.48303 113.786 2.86267 114.261 2.31103C114.735 1.75939 115.359 1.3192 116.134 0.992299C116.909 0.665402 117.774 0.501953 118.732 0.501953C119.69 0.501953 120.552 0.665402 121.322 0.992299C122.092 1.3192 122.716 1.75939 123.195 2.31103C123.674 2.86267 124.039 3.48303 124.292 4.1684C124.546 4.85563 124.671 5.57815 124.671 6.33967C124.671 7.10119 124.544 7.82557 124.292 8.51094C124.039 9.19816 123.674 9.81667 123.195 10.3683C122.716 10.9199 122.092 11.3601 121.322 11.687C120.552 12.0139 119.69 12.1774 118.732 12.1774C117.774 12.1774 116.907 12.0139 116.134 11.687C115.359 11.3601 114.735 10.9199 114.261 10.3683C113.788 9.81667 113.425 9.19631 113.171 8.51094ZM121.741 9.26689C122.446 8.47379 122.798 7.49681 122.798 6.33967C122.798 5.18253 122.446 4.20555 121.741 3.41245C121.037 2.61936 120.033 2.22188 118.732 2.22188C117.431 2.22188 116.44 2.61936 115.73 3.41245C115.02 4.20555 114.664 5.18253 114.664 6.33967C114.664 7.49681 115.018 8.47379 115.73 9.26689C116.44 10.06 117.44 10.4575 118.732 10.4575C120.023 10.4575 121.037 10.06 121.741 9.26689Z" fill="url(#paint14_radial_31_611)"/>
<path d="M46.3317 21.8463C46.3317 20.8805 46.5031 20.0131 46.8479 19.2404C47.1926 18.4678 47.6492 17.8437 48.2194 17.3663C48.7896 16.889 49.4251 16.5268 50.1239 16.2798C50.8227 16.0327 51.555 15.9102 52.3191 15.9102C53.4707 15.9102 54.5403 16.1572 55.5298 16.6494V18.4343C54.723 17.8771 53.7539 17.5985 52.6247 17.5985C51.4302 17.5985 50.3978 17.9588 49.5257 18.6758C48.6536 19.3946 48.2138 20.4514 48.2026 21.8445C48.2026 22.723 48.4281 23.4808 48.8809 24.1123C49.3319 24.7457 49.8872 25.2007 50.5432 25.4793C51.1991 25.7579 51.9035 25.8972 52.6564 25.8972C53.862 25.8972 54.846 25.6075 55.61 25.028V26.8464C54.5981 27.3404 53.5061 27.5856 52.334 27.5856C51.5811 27.5856 50.8544 27.4649 50.1556 27.2234C49.4568 26.9819 48.8157 26.6309 48.2343 26.1703C47.6529 25.7096 47.1908 25.1041 46.846 24.3519C46.5013 23.6015 46.3298 22.7657 46.3298 21.8426L46.3317 21.8463Z" fill="url(#paint15_radial_31_611)"/>
<path d="M57.4119 23.9211C57.1585 23.2357 57.0317 22.5113 57.0317 21.7498C57.0317 20.9883 57.1585 20.2639 57.4119 19.5786C57.6653 18.8932 58.0268 18.2728 58.502 17.7212C58.9754 17.1696 59.5996 16.7294 60.3748 16.4025C61.15 16.0756 62.0147 15.9121 62.9725 15.9121C63.9304 15.9121 64.7931 16.0756 65.5628 16.4025C66.3324 16.7294 66.9566 17.1696 67.4356 17.7212C67.9145 18.2728 68.2797 18.8932 68.5332 19.5786C68.7866 20.2658 68.9114 20.9883 68.9114 21.7498C68.9114 22.5113 68.7847 23.2357 68.5332 23.9211C68.2797 24.6083 67.9145 25.2268 67.4356 25.7785C66.9566 26.3301 66.3324 26.7703 65.5628 27.0972C64.7931 27.4241 63.9304 27.5875 62.9725 27.5875C62.0147 27.5875 61.1482 27.4241 60.3748 27.0972C59.5996 26.7703 58.9754 26.3301 58.502 25.7785C58.0287 25.2268 57.6653 24.6065 57.4119 23.9211ZM65.982 24.677C66.6864 23.8839 67.0386 22.907 67.0386 21.7498C67.0386 20.5927 66.6864 19.6157 65.982 18.8226C65.2776 18.0295 64.2732 17.632 62.9725 17.632C61.6718 17.632 60.6804 18.0295 59.9705 18.8226C59.2605 19.6157 58.9045 20.5927 58.9045 21.7498C58.9045 22.907 59.2586 23.8839 59.9705 24.677C60.6804 25.4701 61.6811 25.8676 62.9725 25.8676C64.2639 25.8676 65.2776 25.4701 65.982 24.677Z" fill="url(#paint16_radial_31_611)"/>
<path d="M73.0912 27.3795H71.252V16.1201H72.9664L79.0637 24.3743C79.0525 24.1161 79.0469 23.7019 79.0469 23.1336V16.122H80.8862V27.3814H79.1587L73.0744 19.1458C73.0856 19.4039 73.0912 19.8107 73.0912 20.3679V27.3814V27.3795Z" fill="url(#paint17_radial_31_611)"/>
<path d="M83.9517 16.1201H91.7298V17.7936H85.7909V20.8657H91.2453V22.5392H85.7909V25.7079H91.8267V27.3814H83.9517V16.122V16.1201Z" fill="url(#paint18_radial_31_611)"/>
<path d="M93.4257 21.8463C93.4257 20.8805 93.5971 20.0131 93.9419 19.2404C94.2866 18.4678 94.7432 17.8437 95.3134 17.3663C95.8836 16.889 96.5191 16.5268 97.2179 16.2798C97.9167 16.0327 98.649 15.9102 99.4131 15.9102C100.565 15.9102 101.634 16.1572 102.624 16.6494V18.4343C101.817 17.8771 100.848 17.5985 99.7187 17.5985C98.5242 17.5985 97.4918 17.9588 96.6197 18.6758C95.7476 19.3946 95.3078 20.4514 95.2966 21.8445C95.2966 22.723 95.5221 23.4808 95.9749 24.1123C96.4259 24.7457 96.9812 25.2007 97.6372 25.4793C98.2931 25.7579 98.9975 25.8972 99.7503 25.8972C100.956 25.8972 101.94 25.6075 102.704 25.028V26.8464C101.692 27.3404 100.6 27.5856 99.428 27.5856C98.6751 27.5856 97.9484 27.4649 97.2496 27.2234C96.5508 26.9819 95.9097 26.6309 95.3283 26.1703C94.7469 25.7096 94.2848 25.1041 93.94 24.3519C93.5953 23.6015 93.4238 22.7657 93.4238 21.8426L93.4257 21.8463Z" fill="url(#paint19_radial_31_611)"/>
<path d="M103.867 16.1201H113.179V17.8085H109.45V27.3795H107.61V17.8085H103.867V16.1201Z" fill="url(#paint20_radial_31_611)"/>
<path d="M114.472 27.3795H112.519L117.297 16.1201H119.313L124.074 27.3795H122.138L121.145 24.9501H115.463L114.472 27.3795ZM118.085 18.531L116.121 23.3416H120.487L118.517 18.5273C118.428 18.2932 118.357 18.0852 118.301 17.9051C118.245 18.0871 118.174 18.297 118.085 18.531Z" fill="url(#paint21_radial_31_611)"/>
<path d="M127.704 27.3795H125.865V16.1201H127.58L133.677 24.3743C133.666 24.1161 133.66 23.7019 133.66 23.1336V16.122H135.499V27.3814H133.772L127.688 19.1458C127.699 19.4039 127.704 19.8107 127.704 20.3679V27.3814V27.3795Z" fill="url(#paint22_radial_31_611)"/>
<path d="M138.567 16.1201H142.521C144.457 16.1201 145.931 16.6346 146.943 17.6636C147.955 18.6926 148.46 20.0559 148.46 21.7498C148.46 23.4437 147.955 24.807 146.943 25.836C145.931 26.865 144.457 27.3795 142.521 27.3795H138.567V16.1201ZM145.547 24.6863C146.24 24.0047 146.589 23.0277 146.589 21.7498C146.589 20.4719 146.242 19.495 145.547 18.8133C144.854 18.1317 143.838 17.7918 142.506 17.7918H140.408V25.706H142.506C143.84 25.706 144.854 25.3661 145.547 24.6845V24.6863Z" fill="url(#paint23_radial_31_611)"/>
<path d="M150.502 23.9211C150.249 23.2357 150.122 22.5113 150.122 21.7498C150.122 20.9883 150.249 20.2639 150.502 19.5786C150.756 18.8932 151.117 18.2728 151.592 17.7212C152.066 17.1696 152.69 16.7294 153.465 16.4025C154.24 16.0756 155.105 15.9121 156.063 15.9121C157.021 15.9121 157.883 16.0756 158.653 16.4025C159.423 16.7294 160.047 17.1696 160.526 17.7212C161.005 18.2728 161.37 18.8932 161.623 19.5786C161.877 20.2658 162.002 20.9883 162.002 21.7498C162.002 22.5113 161.875 23.2357 161.623 23.9211C161.37 24.6083 161.005 25.2268 160.526 25.7785C160.047 26.3301 159.423 26.7703 158.653 27.0972C157.883 27.4241 157.021 27.5875 156.063 27.5875C155.105 27.5875 154.239 27.4241 153.465 27.0972C152.69 26.7703 152.066 26.3301 151.592 25.7785C151.119 25.2268 150.756 24.6065 150.502 23.9211ZM159.072 24.677C159.777 23.8839 160.129 22.907 160.129 21.7498C160.129 20.5927 159.777 19.6157 159.072 18.8226C158.368 18.0295 157.364 17.632 156.063 17.632C154.762 17.632 153.771 18.0295 153.061 18.8226C152.351 19.6157 151.995 20.5927 151.995 21.7498C151.995 22.907 152.349 23.8839 153.061 24.677C153.771 25.4701 154.771 25.8676 156.063 25.8676C157.354 25.8676 158.368 25.4701 159.072 24.677Z" fill="url(#paint24_radial_31_611)"/>
<path d="M48.8661 42.7925H47.0269V31.5312H48.7413L54.8386 39.7854C54.8274 39.5272 54.8218 39.113 54.8218 38.5447V31.5331H56.6611V42.7943H54.9336L48.8493 34.5588C48.8605 34.8169 48.8661 35.2237 48.8661 35.7809V42.7943V42.7925Z" fill="url(#paint25_radial_31_611)"/>
<path d="M59.7283 31.5312H67.5065V33.2047H61.5675V36.2768H67.0219V37.9503H61.5675V41.119H67.6034V42.7925H59.7283V31.5312Z" fill="url(#paint26_radial_31_611)"/>
<path d="M69.2004 37.1608C69.2004 36.2061 69.3719 35.348 69.7166 34.5865C70.0614 33.8249 70.5235 33.212 71.1049 32.7439C71.6863 32.2777 72.3311 31.923 73.0411 31.6815C73.7511 31.4401 74.4927 31.3193 75.2679 31.3193C76.5053 31.3193 77.6457 31.5664 78.6893 32.0586V33.8435C77.8172 33.2863 76.7625 33.0077 75.5251 33.0077C74.2877 33.0077 73.2517 33.3569 72.387 34.0534C71.5205 34.7499 71.0881 35.7863 71.0881 37.1589C71.0881 37.9316 71.2167 38.5984 71.4758 39.1612C71.7348 39.7239 72.0832 40.1567 72.5249 40.4557C72.9665 40.7566 73.4305 40.9758 73.9206 41.1151C74.4107 41.2544 74.9288 41.325 75.4785 41.325C76.1456 41.325 76.7103 41.2173 77.1724 41.0037V36.741H78.9632V42.2425C77.834 42.7459 76.6339 42.9985 75.3648 42.9985C74.5468 42.9985 73.7827 42.8889 73.0728 42.6697C72.3628 42.4506 71.7124 42.1144 71.1198 41.6649C70.5272 41.2154 70.0595 40.6025 69.7166 39.8317C69.3719 39.059 69.2004 38.1693 69.2004 37.1608Z" fill="url(#paint27_radial_31_611)"/>
<path d="M81.2329 39.3335C80.9795 38.6481 80.8528 37.9238 80.8528 37.1622C80.8528 36.4007 80.9795 35.6763 81.2329 34.991C81.4864 34.3056 81.8479 33.6852 82.3231 33.1336C82.7964 32.582 83.4207 32.1418 84.1959 31.8149C84.9711 31.488 85.8357 31.3245 86.7936 31.3245C87.7514 31.3245 88.6142 31.488 89.3838 31.8149C90.1534 32.1418 90.7777 32.582 91.2566 33.1336C91.7355 33.6852 92.1008 34.3056 92.3542 34.991C92.6076 35.6782 92.7325 36.4007 92.7325 37.1622C92.7325 37.9238 92.6058 38.6481 92.3542 39.3335C92.1008 40.0207 91.7355 40.6392 91.2566 41.1909C90.7777 41.7425 90.1534 42.1827 89.3838 42.5096C88.6142 42.8365 87.7514 43 86.7936 43C85.8357 43 84.9692 42.8365 84.1959 42.5096C83.4207 42.1827 82.7964 41.7425 82.3231 41.1909C81.8497 40.6392 81.4864 40.0189 81.2329 39.3335ZM89.8031 40.0895C90.5075 39.2964 90.8597 38.3194 90.8597 37.1622C90.8597 36.0051 90.5075 35.0281 89.8031 34.235C89.0987 33.4419 88.0943 33.0444 86.7936 33.0444C85.4929 33.0444 84.5015 33.4419 83.7915 34.235C83.0815 35.0281 82.7256 36.0051 82.7256 37.1622C82.7256 38.3194 83.0796 39.2964 83.7915 40.0895C84.5015 40.8826 85.5022 41.28 86.7936 41.28C88.085 41.28 89.0987 40.8826 89.8031 40.0895ZM87.3097 30.4534H85.5506L87.019 28.0723H89.0204L87.3097 30.4534Z" fill="url(#paint28_radial_31_611)"/>
<path d="M94.3778 37.2574C94.3778 36.2916 94.5493 35.4242 94.894 34.6516C95.2388 33.8789 95.6953 33.2548 96.2656 32.7775C96.8358 32.3001 97.4712 31.9379 98.17 31.6909C98.8688 31.4439 99.6012 31.3213 100.365 31.3213C101.517 31.3213 102.586 31.5683 103.576 32.0605V33.8455C102.769 33.2882 101.8 33.0096 100.671 33.0096C99.4763 33.0096 98.444 33.3681 97.5718 34.0869C96.6997 34.8057 96.26 35.8626 96.2488 37.2556C96.2488 38.136 96.4743 38.8919 96.9271 39.5234C97.378 40.1568 97.9334 40.6119 98.5893 40.8905C99.2453 41.1691 99.9497 41.3084 100.703 41.3084C101.908 41.3084 102.892 41.0186 103.656 40.4391V42.2575C102.644 42.7516 101.552 42.9967 100.38 42.9967C99.6273 42.9967 98.9005 42.876 98.2017 42.6345C97.5029 42.3931 96.8619 42.042 96.2805 41.5814C95.699 41.1208 95.2369 40.5153 94.8922 39.763C94.5474 39.0127 94.376 38.1768 94.376 37.2537L94.3778 37.2574Z" fill="url(#paint29_radial_31_611)"/>
<path d="M105.965 31.5312H107.804V42.7925H105.965V31.5312Z" fill="url(#paint30_radial_31_611)"/>
<path d="M110.525 39.3342C110.271 38.6488 110.145 37.9244 110.145 37.1629C110.145 36.4014 110.271 35.677 110.525 34.9916C110.778 34.3063 111.14 33.6859 111.615 33.1343C112.088 32.5826 112.713 32.1424 113.488 31.8155C114.263 31.4886 115.128 31.3252 116.086 31.3252C117.043 31.3252 117.906 31.4886 118.676 31.8155C119.445 32.1424 120.07 32.5826 120.549 33.1343C121.028 33.6859 121.393 34.3063 121.646 34.9916C121.9 35.6789 122.024 36.4014 122.024 37.1629C122.024 37.9244 121.898 38.6488 121.646 39.3342C121.393 40.0214 121.028 40.6399 120.549 41.1916C120.07 41.7432 119.445 42.1834 118.676 42.5103C117.906 42.8372 117.043 43.0006 116.086 43.0006C115.128 43.0006 114.261 42.8372 113.488 42.5103C112.713 42.1834 112.088 41.7432 111.615 41.1916C111.142 40.6399 110.778 40.0196 110.525 39.3342ZM119.095 40.0901C119.799 39.297 120.152 38.3201 120.152 37.1629C120.152 36.0058 119.799 35.0288 119.095 34.2357C118.391 33.4426 117.386 33.0451 116.086 33.0451C114.785 33.0451 113.793 33.4426 113.083 34.2357C112.374 35.0288 112.018 36.0058 112.018 37.1629C112.018 38.3201 112.372 39.297 113.083 40.0901C113.793 40.8832 114.794 41.2807 116.086 41.2807C117.377 41.2807 118.391 40.8832 119.095 40.0901Z" fill="url(#paint31_radial_31_611)"/>
<path d="M123.767 34.3953C123.767 33.4091 124.145 32.6494 124.905 32.1201C125.664 31.5888 126.609 31.3232 127.738 31.3232C129.104 31.3232 130.282 31.6074 131.273 32.1758V33.9291C130.315 33.2865 129.186 32.9744 127.883 32.9967C126.387 32.9967 125.64 33.4462 125.64 34.3415C125.64 34.7742 125.863 35.1364 126.311 35.4262C126.758 35.7159 127.296 35.9704 127.926 36.1858C128.556 36.4032 129.191 36.6205 129.832 36.8415C130.474 37.0625 131.01 37.4266 131.444 37.9355C131.879 38.4444 132.095 39.0759 132.095 39.8319C132.095 40.937 131.694 41.7431 130.893 42.252C130.092 42.7609 129.067 43.0098 127.818 43.0005C126.312 43.0005 124.978 42.6736 123.815 42.0198V40.2182C124.967 40.9574 126.258 41.3289 127.689 41.3289C129.378 41.3289 130.224 40.8627 130.224 39.9303C130.224 39.5235 130.065 39.1744 129.749 38.8846C129.432 38.5949 129.035 38.3683 128.563 38.2048C128.09 38.0414 127.57 37.8612 127.006 37.6662C126.441 37.4711 125.919 37.2575 125.44 37.0272C124.961 36.7969 124.563 36.457 124.246 36.0057C123.929 35.5562 123.771 35.0194 123.771 34.3972L123.767 34.3953Z" fill="url(#paint32_radial_31_611)"/>
<path d="M69.2675 6.37439C69.3551 8.45651 67.8754 10.9231 65.261 11.9354C63.6863 12.5446 63.3472 14.3499 64.5827 15.4384C64.797 15.626 65.0541 15.7355 65.315 15.8396C68.0171 16.9038 69.6513 19.6787 69.2209 22.4574C68.7028 25.8099 65.5629 28.2338 61.9347 27.6729C58.9214 27.2067 56.6126 24.5636 56.6386 21.5937C56.6629 18.9971 58.2636 16.7385 60.729 15.8043C61.5582 15.4904 62.039 14.8812 62.0837 14.01C62.1303 13.1167 61.7353 12.4183 60.893 12.0357C60.0153 11.6382 59.1748 11.2073 58.4798 10.5293C56.2324 8.3302 56.0554 4.77148 58.0083 2.32532C60.1532 -0.362292 64.3143 -0.757913 66.9046 1.34092C68.4513 2.59278 69.2842 4.19384 69.2675 6.37439Z" fill="url(#paint33_radial_31_611)"/>
</g>
<defs>
<radialGradient id="paint0_radial_31_611" cx="0" cy="0" r="1" gradientUnits="userSpaceOnUse" gradientTransform="translate(32.5361 33.9285) rotate(47.4863) scale(31.9947 32.0039)">
<stop stop-color="#F9D805"/>
<stop offset="0.44" stop-color="#D75535"/>
<stop offset="0.7" stop-color="#CF3CDA"/>
<stop offset="0.99" stop-color="#2872FF"/>
</radialGradient>
<radialGradient id="paint1_radial_31_611" cx="0" cy="0" r="1" gradientUnits="userSpaceOnUse" gradientTransform="translate(9.94036 10.9307) rotate(47.4863) scale(30.0675 30.0763)">
<stop stop-color="#F9D805"/>
<stop offset="0.44" stop-color="#D75535"/>
<stop offset="0.7" stop-color="#CF3CDA"/>
<stop offset="0.99" stop-color="#2872FF"/>
</radialGradient>
<radialGradient id="paint2_radial_31_611" cx="0" cy="0" r="1" gradientUnits="userSpaceOnUse" gradientTransform="translate(5.29977 4.03228) scale(40.3686 40.2362)">
<stop stop-color="#F9D805"/>
<stop offset="0.44" stop-color="#D75535"/>
<stop offset="0.7" stop-color="#CF3CDA"/>
<stop offset="0.99" stop-color="#2872FF"/>
</radialGradient>
<radialGradient id="paint3_radial_31_611" cx="0" cy="0" r="1" gradientUnits="userSpaceOnUse" gradientTransform="translate(5.29984 4.03187) scale(40.3686 40.2362)">
<stop stop-color="#F9D805"/>
<stop offset="0.44" stop-color="#D75535"/>
<stop offset="0.7" stop-color="#CF3CDA"/>
<stop offset="0.99" stop-color="#2872FF"/>
</radialGradient>
<radialGradient id="paint4_radial_31_611" cx="0" cy="0" r="1" gradientUnits="userSpaceOnUse" gradientTransform="translate(5.29988 4.03168) scale(40.3686 40.2362)">
<stop stop-color="#F9D805"/>
<stop offset="0.44" stop-color="#D75535"/>
<stop offset="0.7" stop-color="#CF3CDA"/>
<stop offset="0.99" stop-color="#2872FF"/>
</radialGradient>
<radialGradient id="paint5_radial_31_611" cx="0" cy="0" r="1" gradientUnits="userSpaceOnUse" gradientTransform="translate(5.29995 4.0315) scale(40.3686 40.2362)">
<stop stop-color="#F9D805"/>
<stop offset="0.44" stop-color="#D75535"/>
<stop offset="0.7" stop-color="#CF3CDA"/>
<stop offset="0.99" stop-color="#2872FF"/>
</radialGradient>
<radialGradient id="paint6_radial_31_611" cx="0" cy="0" r="1" gradientUnits="userSpaceOnUse" gradientTransform="translate(5.29982 4.03165) scale(40.3686 40.2362)">
<stop stop-color="#F9D805"/>
<stop offset="0.44" stop-color="#D75535"/>
<stop offset="0.7" stop-color="#CF3CDA"/>
<stop offset="0.99" stop-color="#2872FF"/>
</radialGradient>
<radialGradient id="paint7_radial_31_611" cx="0" cy="0" r="1" gradientUnits="userSpaceOnUse" gradientTransform="translate(5.29984 4.03184) scale(40.3686 40.2362)">
<stop stop-color="#F9D805"/>
<stop offset="0.44" stop-color="#D75535"/>
<stop offset="0.7" stop-color="#CF3CDA"/>
<stop offset="0.99" stop-color="#2872FF"/>
</radialGradient>
<radialGradient id="paint8_radial_31_611" cx="0" cy="0" r="1" gradientUnits="userSpaceOnUse" gradientTransform="translate(138.324 43.9513) scale(98.6211 98.2977)">
<stop stop-color="#F9D805"/>
<stop offset="0.44" stop-color="#D75535"/>
<stop offset="0.7" stop-color="#CF3CDA"/>
<stop offset="0.99" stop-color="#2872FF"/>
</radialGradient>
<radialGradient id="paint9_radial_31_611" cx="0" cy="0" r="1" gradientUnits="userSpaceOnUse" gradientTransform="translate(138.324 43.9514) scale(98.6211 98.2977)">
<stop stop-color="#F9D805"/>
<stop offset="0.44" stop-color="#D75535"/>
<stop offset="0.7" stop-color="#CF3CDA"/>
<stop offset="0.99" stop-color="#2872FF"/>
</radialGradient>
<radialGradient id="paint10_radial_31_611" cx="0" cy="0" r="1" gradientUnits="userSpaceOnUse" gradientTransform="translate(138.324 43.9514) scale(98.6211 98.2977)">
<stop stop-color="#F9D805"/>
<stop offset="0.44" stop-color="#D75535"/>
<stop offset="0.7" stop-color="#CF3CDA"/>
<stop offset="0.99" stop-color="#2872FF"/>
</radialGradient>
<radialGradient id="paint11_radial_31_611" cx="0" cy="0" r="1" gradientUnits="userSpaceOnUse" gradientTransform="translate(138.324 43.9514) scale(98.621 98.2977)">
<stop stop-color="#F9D805"/>
<stop offset="0.44" stop-color="#D75535"/>
<stop offset="0.7" stop-color="#CF3CDA"/>
<stop offset="0.99" stop-color="#2872FF"/>
</radialGradient>
<radialGradient id="paint12_radial_31_611" cx="0" cy="0" r="1" gradientUnits="userSpaceOnUse" gradientTransform="translate(138.324 43.9513) scale(98.6211 98.2977)">
<stop stop-color="#F9D805"/>
<stop offset="0.44" stop-color="#D75535"/>
<stop offset="0.7" stop-color="#CF3CDA"/>
<stop offset="0.99" stop-color="#2872FF"/>
</radialGradient>
<radialGradient id="paint13_radial_31_611" cx="0" cy="0" r="1" gradientUnits="userSpaceOnUse" gradientTransform="translate(138.324 43.9514) scale(98.621 98.2977)">
<stop stop-color="#F9D805"/>
<stop offset="0.44" stop-color="#D75535"/>
<stop offset="0.7" stop-color="#CF3CDA"/>
<stop offset="0.99" stop-color="#2872FF"/>
</radialGradient>
<radialGradient id="paint14_radial_31_611" cx="0" cy="0" r="1" gradientUnits="userSpaceOnUse" gradientTransform="translate(138.324 43.9514) scale(98.6211 98.2977)">
<stop stop-color="#F9D805"/>
<stop offset="0.44" stop-color="#D75535"/>
<stop offset="0.7" stop-color="#CF3CDA"/>
<stop offset="0.99" stop-color="#2872FF"/>
</radialGradient>
<radialGradient id="paint15_radial_31_611" cx="0" cy="0" r="1" gradientUnits="userSpaceOnUse" gradientTransform="translate(138.324 43.9509) scale(98.6211 98.2977)">
<stop stop-color="#F9D805"/>
<stop offset="0.44" stop-color="#D75535"/>
<stop offset="0.7" stop-color="#CF3CDA"/>
<stop offset="0.99" stop-color="#2872FF"/>
</radialGradient>
<radialGradient id="paint16_radial_31_611" cx="0" cy="0" r="1" gradientUnits="userSpaceOnUse" gradientTransform="translate(138.324 43.951) scale(98.6211 98.2977)">
<stop stop-color="#F9D805"/>
<stop offset="0.44" stop-color="#D75535"/>
<stop offset="0.7" stop-color="#CF3CDA"/>
<stop offset="0.99" stop-color="#2872FF"/>
</radialGradient>
<radialGradient id="paint17_radial_31_611" cx="0" cy="0" r="1" gradientUnits="userSpaceOnUse" gradientTransform="translate(138.324 43.951) scale(98.6211 98.2976)">
<stop stop-color="#F9D805"/>
<stop offset="0.44" stop-color="#D75535"/>
<stop offset="0.7" stop-color="#CF3CDA"/>
<stop offset="0.99" stop-color="#2872FF"/>
</radialGradient>
<radialGradient id="paint18_radial_31_611" cx="0" cy="0" r="1" gradientUnits="userSpaceOnUse" gradientTransform="translate(138.324 43.951) scale(98.621 98.2976)">
<stop stop-color="#F9D805"/>
<stop offset="0.44" stop-color="#D75535"/>
<stop offset="0.7" stop-color="#CF3CDA"/>
<stop offset="0.99" stop-color="#2872FF"/>
</radialGradient>
<radialGradient id="paint19_radial_31_611" cx="0" cy="0" r="1" gradientUnits="userSpaceOnUse" gradientTransform="translate(138.324 43.9509) scale(98.6211 98.2977)">
<stop stop-color="#F9D805"/>
<stop offset="0.44" stop-color="#D75535"/>
<stop offset="0.7" stop-color="#CF3CDA"/>
<stop offset="0.99" stop-color="#2872FF"/>
</radialGradient>
<radialGradient id="paint20_radial_31_611" cx="0" cy="0" r="1" gradientUnits="userSpaceOnUse" gradientTransform="translate(138.324 43.951) scale(98.621 98.2977)">
<stop stop-color="#F9D805"/>
<stop offset="0.44" stop-color="#D75535"/>
<stop offset="0.7" stop-color="#CF3CDA"/>
<stop offset="0.99" stop-color="#2872FF"/>
</radialGradient>
<radialGradient id="paint21_radial_31_611" cx="0" cy="0" r="1" gradientUnits="userSpaceOnUse" gradientTransform="translate(138.324 43.951) scale(98.6211 98.2977)">
<stop stop-color="#F9D805"/>
<stop offset="0.44" stop-color="#D75535"/>
<stop offset="0.7" stop-color="#CF3CDA"/>
<stop offset="0.99" stop-color="#2872FF"/>
</radialGradient>
<radialGradient id="paint22_radial_31_611" cx="0" cy="0" r="1" gradientUnits="userSpaceOnUse" gradientTransform="translate(138.324 43.951) scale(98.6211 98.2976)">
<stop stop-color="#F9D805"/>
<stop offset="0.44" stop-color="#D75535"/>
<stop offset="0.7" stop-color="#CF3CDA"/>
<stop offset="0.99" stop-color="#2872FF"/>
</radialGradient>
<radialGradient id="paint23_radial_31_611" cx="0" cy="0" r="1" gradientUnits="userSpaceOnUse" gradientTransform="translate(138.324 43.951) scale(98.621 98.2977)">
<stop stop-color="#F9D805"/>
<stop offset="0.44" stop-color="#D75535"/>
<stop offset="0.7" stop-color="#CF3CDA"/>
<stop offset="0.99" stop-color="#2872FF"/>
</radialGradient>
<radialGradient id="paint24_radial_31_611" cx="0" cy="0" r="1" gradientUnits="userSpaceOnUse" gradientTransform="translate(138.324 43.951) scale(98.6211 98.2977)">
<stop stop-color="#F9D805"/>
<stop offset="0.44" stop-color="#D75535"/>
<stop offset="0.7" stop-color="#CF3CDA"/>
<stop offset="0.99" stop-color="#2872FF"/>
</radialGradient>
<radialGradient id="paint25_radial_31_611" cx="0" cy="0" r="1" gradientUnits="userSpaceOnUse" gradientTransform="translate(138.324 43.9515) scale(98.6211 98.2977)">
<stop stop-color="#F9D805"/>
<stop offset="0.44" stop-color="#D75535"/>
<stop offset="0.7" stop-color="#CF3CDA"/>
<stop offset="0.99" stop-color="#2872FF"/>
</radialGradient>
<radialGradient id="paint26_radial_31_611" cx="0" cy="0" r="1" gradientUnits="userSpaceOnUse" gradientTransform="translate(138.324 43.9515) scale(98.6211 98.2977)">
<stop stop-color="#F9D805"/>
<stop offset="0.44" stop-color="#D75535"/>
<stop offset="0.7" stop-color="#CF3CDA"/>
<stop offset="0.99" stop-color="#2872FF"/>
</radialGradient>
<radialGradient id="paint27_radial_31_611" cx="0" cy="0" r="1" gradientUnits="userSpaceOnUse" gradientTransform="translate(138.324 43.9513) scale(98.6211 98.2977)">
<stop stop-color="#F9D805"/>
<stop offset="0.44" stop-color="#D75535"/>
<stop offset="0.7" stop-color="#CF3CDA"/>
<stop offset="0.99" stop-color="#2872FF"/>
</radialGradient>
<radialGradient id="paint28_radial_31_611" cx="0" cy="0" r="1" gradientUnits="userSpaceOnUse" gradientTransform="translate(138.324 43.9509) scale(98.6211 98.2976)">
<stop stop-color="#F9D805"/>
<stop offset="0.44" stop-color="#D75535"/>
<stop offset="0.7" stop-color="#CF3CDA"/>
<stop offset="0.99" stop-color="#2872FF"/>
</radialGradient>
<radialGradient id="paint29_radial_31_611" cx="0" cy="0" r="1" gradientUnits="userSpaceOnUse" gradientTransform="translate(138.324 43.9514) scale(98.6211 98.2977)">
<stop stop-color="#F9D805"/>
<stop offset="0.44" stop-color="#D75535"/>
<stop offset="0.7" stop-color="#CF3CDA"/>
<stop offset="0.99" stop-color="#2872FF"/>
</radialGradient>
<radialGradient id="paint30_radial_31_611" cx="0" cy="0" r="1" gradientUnits="userSpaceOnUse" gradientTransform="translate(138.324 43.9515) scale(98.621 98.2977)">
<stop stop-color="#F9D805"/>
<stop offset="0.44" stop-color="#D75535"/>
<stop offset="0.7" stop-color="#CF3CDA"/>
<stop offset="0.99" stop-color="#2872FF"/>
</radialGradient>
<radialGradient id="paint31_radial_31_611" cx="0" cy="0" r="1" gradientUnits="userSpaceOnUse" gradientTransform="translate(138.324 43.9516) scale(98.6211 98.2977)">
<stop stop-color="#F9D805"/>
<stop offset="0.44" stop-color="#D75535"/>
<stop offset="0.7" stop-color="#CF3CDA"/>
<stop offset="0.99" stop-color="#2872FF"/>
</radialGradient>
<radialGradient id="paint32_radial_31_611" cx="0" cy="0" r="1" gradientUnits="userSpaceOnUse" gradientTransform="translate(138.324 43.9515) scale(98.6211 98.2977)">
<stop stop-color="#F9D805"/>
<stop offset="0.44" stop-color="#D75535"/>
<stop offset="0.7" stop-color="#CF3CDA"/>
<stop offset="0.99" stop-color="#2872FF"/>
</radialGradient>
<radialGradient id="paint33_radial_31_611" cx="0" cy="0" r="1" gradientUnits="userSpaceOnUse" gradientTransform="translate(138.324 43.9509) scale(98.6211 98.2977)">
<stop stop-color="#F9D805"/>
<stop offset="0.44" stop-color="#D75535"/>
<stop offset="0.7" stop-color="#CF3CDA"/>
<stop offset="0.99" stop-color="#2872FF"/>
</radialGradient>
<clipPath id="clip0_31_611">
<rect width="162" height="43" fill="white"/>
</clipPath>
</defs>
</svg>
