<svg width="144" height="48" viewBox="0 0 144 48" fill="none" xmlns="http://www.w3.org/2000/svg">
<g clip-path="url(#clip0_110_562)">
<path d="M53.7126 12.7715H45.8374C45.2985 12.7715 44.8402 13.163 44.7561 13.695L41.571 33.8891C41.5077 34.2875 41.8163 34.6468 42.2205 34.6468H45.9802C46.5191 34.6468 46.9774 34.2553 47.0614 33.7222L47.9205 28.2755C48.0034 27.7423 48.4628 27.3508 49.0006 27.3508H51.4936C56.6812 27.3508 59.6751 24.8405 60.457 19.866C60.8094 17.6896 60.472 15.9796 59.4529 14.782C58.3336 13.467 56.3484 12.7715 53.7126 12.7715ZM54.6211 20.1469C54.1905 22.9728 52.0314 22.9728 49.9437 22.9728H48.7553L49.589 17.6954C49.6385 17.3764 49.9149 17.1415 50.2373 17.1415H50.782C52.2041 17.1415 53.5456 17.1415 54.2388 17.9522C54.6522 18.4358 54.7789 19.1543 54.6211 20.1469Z" fill="#253B80"/>
<path d="M77.2532 20.056H73.482C73.1607 20.056 72.8832 20.2909 72.8337 20.6098L72.6667 21.6646L72.403 21.2823C71.5866 20.0974 69.766 19.7013 67.949 19.7013C63.7816 19.7013 60.2223 22.8576 59.5291 27.2852C59.1687 29.4938 59.6811 31.6057 60.9339 33.0784C62.0831 34.4326 63.7275 34.9969 65.6839 34.9969C69.0417 34.9969 70.9037 32.8378 70.9037 32.8378L70.7356 33.8857C70.6723 34.2864 70.9809 34.6457 71.3828 34.6457H74.7797C75.3198 34.6457 75.7758 34.2541 75.861 33.721L77.8992 20.8137C77.9637 20.4164 77.6562 20.056 77.2532 20.056ZM71.9965 27.3957C71.6326 29.5502 69.9226 30.9965 67.7417 30.9965C66.6466 30.9965 65.7714 30.6453 65.2095 29.9797C64.6522 29.3187 64.4403 28.378 64.6176 27.3301C64.9573 25.194 66.6961 23.7005 68.8437 23.7005C69.9146 23.7005 70.7851 24.0563 71.3586 24.7277C71.9332 25.4059 72.1612 26.3524 71.9965 27.3957Z" fill="#253B80"/>
<path d="M97.3379 20.0559H93.5482C93.1867 20.0559 92.847 20.2355 92.642 20.5361L87.4153 28.2351L85.1997 20.8366C85.0604 20.3737 84.6332 20.0559 84.1496 20.0559H80.4256C79.973 20.0559 79.6587 20.4981 79.8026 20.9242L83.9768 33.174L80.0525 38.7139C79.7439 39.1503 80.0548 39.7503 80.5879 39.7503H84.373C84.7322 39.7503 85.0685 39.5752 85.2723 39.2805L97.8768 21.0865C98.1785 20.6512 97.8687 20.0559 97.3379 20.0559Z" fill="#253B80"/>
<path d="M109.885 12.7708H102.008C101.471 12.7708 101.012 13.1623 100.928 13.6943L97.7431 33.8884C97.6798 34.2868 97.9884 34.6461 98.3903 34.6461H102.432C102.807 34.6461 103.129 34.372 103.188 33.9989L104.091 28.2748C104.174 27.7416 104.634 27.3501 105.172 27.3501H107.663C112.852 27.3501 115.845 24.8398 116.628 19.8652C116.981 17.6889 116.642 15.9789 115.623 14.7813C114.505 13.4663 112.521 12.7708 109.885 12.7708ZM110.793 20.1462C110.364 22.972 108.205 22.972 106.116 22.972H104.929L105.763 17.6946C105.813 17.3757 106.087 17.1408 106.411 17.1408H106.955C108.376 17.1408 109.719 17.1408 110.412 17.9514C110.825 18.4351 110.951 19.1536 110.793 20.1462Z" fill="#179BD7"/>
<path d="M133.424 20.0552H129.655C129.332 20.0552 129.056 20.2901 129.008 20.6091L128.841 21.6639L128.576 21.2816C127.76 20.0967 125.94 19.7006 124.123 19.7006C119.956 19.7006 116.398 22.8569 115.705 27.2844C115.345 29.493 115.855 31.6049 117.108 33.0777C118.26 34.4319 119.902 34.9961 121.858 34.9961C125.216 34.9961 127.078 32.837 127.078 32.837L126.91 33.8849C126.847 34.2856 127.155 34.6449 127.559 34.6449H130.955C131.493 34.6449 131.951 34.2534 132.035 33.7203L134.075 20.8129C134.137 20.4157 133.828 20.0552 133.424 20.0552ZM128.167 27.395C127.806 29.5495 126.094 30.9958 123.913 30.9958C122.82 30.9958 121.942 30.6446 121.38 29.979C120.823 29.318 120.613 28.3772 120.788 27.3293C121.13 25.1933 122.867 23.6998 125.015 23.6998C126.085 23.6998 126.956 24.0556 127.529 24.7269C128.106 25.4052 128.334 26.3517 128.167 27.395Z" fill="#179BD7"/>
<path d="M137.87 13.3246L134.638 33.8883C134.574 34.2867 134.883 34.646 135.285 34.646H138.534C139.074 34.646 139.533 34.2545 139.616 33.7214L142.803 13.5284C142.866 13.13 142.558 12.7695 142.156 12.7695H138.517C138.196 12.7707 137.919 13.0056 137.87 13.3246Z" fill="#179BD7"/>
<path d="M8.86683 38.5718L9.46907 34.7465L8.12756 34.7154H1.72168L6.17344 6.48829C6.18725 6.40308 6.23216 6.32363 6.2978 6.2672C6.36344 6.21078 6.4475 6.17969 6.53501 6.17969H17.3362C20.922 6.17969 23.3966 6.92587 24.6886 8.39866C25.2943 9.08957 25.6801 9.81157 25.8666 10.6061C26.0624 11.4398 26.0659 12.4359 25.8747 13.6507L25.8609 13.7394V14.5178L26.4666 14.861C26.9767 15.1316 27.382 15.4413 27.6929 15.796C28.2111 16.3867 28.5462 17.1375 28.6879 18.0276C28.8341 18.9431 28.7857 20.0324 28.5462 21.2657C28.2699 22.6844 27.8231 23.9199 27.2197 24.931C26.6646 25.8625 25.9576 26.6352 25.1182 27.234C24.3167 27.8028 23.3644 28.2347 22.2877 28.511C21.2445 28.7828 20.055 28.9198 18.7503 28.9198H17.9097C17.3086 28.9198 16.7248 29.1363 16.2665 29.5244C15.807 29.9205 15.503 30.4617 15.4097 31.0536L15.3464 31.3979L14.2824 38.14L14.234 38.3876C14.2214 38.4659 14.1995 38.505 14.1673 38.5315C14.1385 38.5557 14.097 38.5718 14.0567 38.5718H8.86683Z" fill="#253B80"/>
<path d="M27.0401 13.8281C27.0079 14.0342 26.971 14.245 26.9296 14.4615C25.5052 21.7747 20.632 24.3012 14.408 24.3012H11.239C10.4779 24.3012 9.8365 24.8539 9.7179 25.6047L8.09541 35.8946L7.63596 38.8114C7.5588 39.3042 7.9388 39.7487 8.43626 39.7487H14.0568C14.7224 39.7487 15.2878 39.2651 15.3926 38.6087L15.4478 38.3232L16.5061 31.6075L16.574 31.239C16.6777 30.5804 17.2442 30.0967 17.9098 30.0967H18.7504C24.1959 30.0967 28.4588 27.8858 29.7047 21.488C30.2252 18.8153 29.9558 16.5837 28.5786 15.0142C28.1617 14.5409 27.6447 14.1482 27.0401 13.8281Z" fill="#179BD7"/>
<path d="M25.55 13.2339C25.3323 13.1706 25.1078 13.113 24.8775 13.0612C24.646 13.0105 24.4088 12.9656 24.1647 12.9265C23.3103 12.7883 22.3741 12.7227 21.3711 12.7227H12.9052C12.6967 12.7227 12.4987 12.7699 12.3213 12.8551C11.931 13.0428 11.6408 13.4124 11.5706 13.865L9.76959 25.2719L9.71777 25.6047C9.83638 24.8539 10.4778 24.3011 11.2389 24.3011H14.4079C20.6318 24.3011 25.505 21.7736 26.9295 14.4614C26.9721 14.245 27.0078 14.0342 27.04 13.8281C26.6796 13.637 26.2892 13.4734 25.8689 13.3341C25.7653 13.2996 25.6582 13.2662 25.55 13.2339Z" fill="#222D65"/>
<path d="M11.5707 13.8655C11.6409 13.413 11.9311 13.0433 12.3214 12.8568C12.4999 12.7716 12.6968 12.7244 12.9053 12.7244H21.3712C22.3742 12.7244 23.3103 12.79 24.1648 12.9282C24.4089 12.9673 24.6461 13.0122 24.8776 13.0629C25.1079 13.1147 25.3324 13.1723 25.55 13.2356C25.6583 13.2679 25.7654 13.3013 25.8702 13.3347C26.2905 13.474 26.6808 13.6387 27.0413 13.8287C27.465 11.1261 27.0378 9.28594 25.5765 7.6197C23.9656 5.78533 21.058 5 17.3374 5H6.53623C5.77623 5 5.12793 5.55273 5.01047 6.30467L0.511502 34.8219C0.422836 35.3862 0.858108 35.8952 1.42696 35.8952H8.09538L9.76968 25.2724L11.5707 13.8655Z" fill="#253B80"/>
</g>
<defs>
<clipPath id="clip0_110_562">
<rect width="143" height="48" fill="white" transform="translate(0.5)"/>
</clipPath>
</defs>
</svg>
