<svg width="127" height="48" viewBox="0 0 127 48" fill="none" xmlns="http://www.w3.org/2000/svg">
<path fill-rule="evenodd" clip-rule="evenodd" d="M122.957 31.9808C123.033 32.8503 123.728 33.9572 124.934 33.9572H125.638C125.912 33.9572 126.136 33.7332 126.136 33.4597V17.9539H126.133C126.119 17.6927 125.903 17.4835 125.638 17.4835H123.454C123.19 17.4835 122.974 17.6927 122.96 17.9539H122.957V19.2139C121.618 17.564 119.508 16.8792 117.392 16.8792C112.581 16.8792 108.682 20.7816 108.682 25.5958C108.682 30.4103 112.581 34.3128 117.392 34.3128C119.508 34.3128 121.815 33.4916 122.957 31.9789V31.9808ZM117.4 31.2622C114.341 31.2622 111.861 28.7255 111.861 25.5958C111.861 22.4667 114.341 19.93 117.4 19.93C120.46 19.93 122.94 22.4667 122.94 25.5958C122.94 28.7255 120.46 31.2622 117.4 31.2622Z" fill="#0D0E10"/>
<path fill-rule="evenodd" clip-rule="evenodd" d="M105.919 24.4905C105.919 19.9677 103.068 16.9165 98.522 16.9165C96.3516 16.9165 94.5725 18.1725 93.9441 19.2514C93.8083 18.4078 93.3608 17.521 91.973 17.521H91.2656C90.992 17.521 90.7686 17.7452 90.7686 18.0187V32.0196C90.7686 32.02 90.7686 32.0211 90.7686 32.0218V33.5257H90.7713C90.7856 33.7865 91.0016 33.996 91.2658 33.996H93.4505C93.4839 33.996 93.5167 33.992 93.5484 33.9858C93.5629 33.983 93.5763 33.9773 93.5904 33.9733C93.6066 33.9683 93.6236 33.9645 93.639 33.9581C93.6584 33.9501 93.6761 33.9393 93.6941 33.9291C93.703 33.9237 93.7123 33.9199 93.7208 33.9143C93.7426 33.9002 93.7626 33.8832 93.782 33.866C93.7851 33.8628 93.7889 33.8606 93.7921 33.8577C93.8138 33.8366 93.8337 33.8135 93.8512 33.7894C93.9058 33.7143 93.9392 33.6233 93.9447 33.5257H93.9475V24.3661C93.9475 21.937 95.9154 19.9677 98.3428 19.9677C100.77 19.9677 102.738 21.937 102.738 24.3661L102.74 32.0223L102.74 32.0196C102.74 32.0264 102.742 32.0333 102.742 32.0406V33.5257H102.744C102.759 33.7865 102.975 33.996 103.239 33.996H105.424C105.457 33.996 105.49 33.992 105.521 33.9858C105.534 33.9835 105.546 33.9782 105.559 33.9747C105.577 33.9695 105.595 33.965 105.612 33.9581C105.63 33.9507 105.647 33.9404 105.663 33.9308C105.674 33.9251 105.685 33.9208 105.694 33.9143C105.715 33.901 105.733 33.8849 105.751 33.8691C105.756 33.8648 105.761 33.8616 105.765 33.8573C105.786 33.8373 105.805 33.8157 105.821 33.7931C105.823 33.7914 105.824 33.79 105.825 33.7883C105.879 33.7139 105.912 33.624 105.918 33.527C105.918 33.5263 105.918 33.5257 105.918 33.5257H105.921L105.919 24.4905Z" fill="#0D0E10"/>
<path fill-rule="evenodd" clip-rule="evenodd" d="M83.1678 31.9808C83.2442 32.8503 83.9398 33.9571 85.1448 33.9571H85.8498C86.1231 33.9571 86.3468 33.7331 86.3468 33.4596V17.9539H86.344C86.3298 17.6927 86.1136 17.4835 85.8498 17.4835H83.6651C83.4009 17.4835 83.1851 17.6927 83.1703 17.9539H83.1678V19.2139C81.8292 17.564 79.7189 16.8792 77.6026 16.8792C72.7924 16.8792 68.8931 20.7816 68.8931 25.5959C68.8931 30.4103 72.7924 34.3129 77.6026 34.3129C79.7189 34.3129 82.0252 33.4917 83.1676 31.9788L83.1678 31.9808ZM77.6111 31.2621C74.552 31.2621 72.0718 28.7255 72.0718 25.5959C72.0718 22.4667 74.552 19.93 77.6111 19.93C80.6706 19.93 83.1503 22.4667 83.1503 25.5959C83.1503 28.7255 80.6706 31.2621 77.6111 31.2621Z" fill="#0D0E10"/>
<path fill-rule="evenodd" clip-rule="evenodd" d="M55.9739 29.76C57.4323 30.7712 59.0242 31.2623 60.554 31.2623C62.0114 31.2623 63.5181 30.5062 63.5181 29.19C63.5181 27.433 60.235 27.1596 58.1723 26.458C56.1091 25.7564 54.3322 24.306 54.3322 21.9573C54.3322 18.3633 57.5321 16.8789 60.5187 16.8789C62.4109 16.8789 64.3633 17.5034 65.6291 18.3979C66.065 18.7285 65.7996 19.108 65.7996 19.108L64.5913 20.8351C64.4555 21.0296 64.218 21.1977 63.8772 20.9871C63.5363 20.7767 62.3407 19.9298 60.5187 19.9298C58.6964 19.9298 57.5988 20.772 57.5988 21.8158C57.5988 23.0675 59.0254 23.4612 60.6963 23.8878C63.6082 24.6733 66.7847 25.6175 66.7847 29.19C66.7847 32.3566 63.825 34.3136 60.554 34.3136C58.0752 34.3136 55.9648 33.6064 54.1948 32.3065C53.826 31.9372 54.0835 31.5942 54.0835 31.5942L55.2859 29.876C55.5306 29.5547 55.839 29.6667 55.9739 29.76Z" fill="#0D0E10"/>
<path fill-rule="evenodd" clip-rule="evenodd" d="M47.5752 31.9808C47.6515 32.8503 48.3471 33.9571 49.552 33.9571H50.2571C50.5304 33.9571 50.7544 33.7331 50.7544 33.4596V17.9539H50.7513C50.737 17.6927 50.5212 17.4835 50.2571 17.4835H48.0725C47.8083 17.4835 47.5925 17.6927 47.5778 17.9539H47.5752V19.2139C46.2367 17.564 44.1263 16.8792 42.0101 16.8792C37.1998 16.8792 33.3003 20.7816 33.3003 25.5959C33.3003 30.4103 37.1998 34.3129 42.0101 34.3129C44.1263 34.3129 46.4326 33.4917 47.5748 31.9788L47.5752 31.9808ZM42.0186 31.2621C38.9593 31.2621 36.4792 28.7255 36.4792 25.5959C36.4792 22.4667 38.9593 19.93 42.0186 19.93C45.0778 19.93 47.5577 22.4667 47.5577 25.5959C47.5577 28.7255 45.0778 31.2621 42.0186 31.2621Z" fill="#0D0E10"/>
<path fill-rule="evenodd" clip-rule="evenodd" d="M21.0895 26.1881C17.8525 26.1881 15.2282 28.8123 15.2282 32.0497C15.2282 35.2868 17.8525 37.911 21.0895 37.911C24.3267 37.911 26.9509 35.2868 26.9509 32.0497C26.9509 28.8123 24.3267 26.1881 21.0895 26.1881ZM5.86134 26.1886C2.62424 26.1886 0 28.8123 0 32.0497C0 35.2868 2.62424 37.911 5.86134 37.911C9.09858 37.911 11.723 35.2868 11.723 32.0497C11.723 28.8123 9.09858 26.1886 5.86134 26.1886ZM19.3367 18.8612C19.3367 22.0986 16.7126 24.7231 13.4755 24.7231C10.2382 24.7231 7.61414 22.0986 7.61414 18.8612C7.61414 15.6245 10.2382 13 13.4755 13C16.7126 13 19.3367 15.6245 19.3367 18.8612Z" fill="#F06A6A"/>
</svg>
