<svg width="127" height="48" viewBox="0 0 127 48" fill="none" xmlns="http://www.w3.org/2000/svg">
<path d="M27.1506 11.884C27.1253 11.707 26.9736 11.6059 26.8472 11.6059C26.7208 11.6059 24.2181 11.5554 24.2181 11.5554C24.2181 11.5554 22.1199 9.53297 21.9177 9.30545C21.7154 9.10321 21.3109 9.15377 21.1593 9.20433C21.1593 9.20433 20.7548 9.33073 20.0975 9.53297C19.9964 9.17905 19.8194 8.74929 19.5919 8.29426C18.8588 6.87858 17.7465 6.12019 16.4319 6.12019C16.3308 6.12019 16.255 6.12019 16.1538 6.14547C16.1033 6.09491 16.078 6.04435 16.0274 6.01907C15.446 5.41235 14.7129 5.10899 13.8281 5.13427C12.1343 5.18483 10.4406 6.42355 9.05019 8.59762C8.08956 10.1397 7.35644 12.061 7.12892 13.5525C5.18237 14.1592 3.81726 14.5889 3.7667 14.5889C2.78079 14.8923 2.75551 14.9176 2.62911 15.8529C2.57855 16.5608 0 36.5066 0 36.5066L21.6396 40.248L31.0184 37.9223C30.9931 37.9223 27.1759 12.061 27.1506 11.884ZM19.0105 9.88689C18.5049 10.0386 17.9487 10.2155 17.342 10.4178C17.342 9.55825 17.2156 8.34482 16.8364 7.33362C18.1257 7.53586 18.7577 9.00209 19.0105 9.88689ZM16.2044 10.7464C15.0668 11.1003 13.8281 11.4795 12.5894 11.8587C12.9433 10.5189 13.6006 9.20433 14.4095 8.31954C14.7129 7.9909 15.1426 7.63698 15.623 7.43474C16.1286 8.42066 16.2297 9.81105 16.2044 10.7464ZM13.8787 6.27187C14.2831 6.27187 14.6118 6.34771 14.8898 6.54995C14.4348 6.77746 13.9798 7.13138 13.5753 7.58642C12.4883 8.74929 11.654 10.5442 11.3254 12.2885C10.2889 12.6171 9.27771 12.9205 8.36764 13.1986C8.97435 10.443 11.2748 6.34771 13.8787 6.27187Z" fill="#95BF47"/>
<path d="M26.8473 11.6066C26.7209 11.6066 24.2182 11.556 24.2182 11.556C24.2182 11.556 22.12 9.53361 21.9177 9.30609C21.8419 9.23025 21.7408 9.17969 21.6396 9.17969V40.2487L31.0185 37.9229C31.0185 37.9229 27.2012 12.0616 27.1759 11.8846C27.1254 11.7077 26.9737 11.6066 26.8473 11.6066Z" fill="#5E8E3E"/>
<path d="M16.4324 16.4337L15.3454 20.5038C15.3454 20.5038 14.1319 19.9476 12.691 20.0487C10.5675 20.1751 10.5675 21.515 10.5675 21.8436C10.6939 23.6637 15.4718 24.0682 15.7498 28.3405C15.9521 31.7027 13.9802 34.0032 11.0983 34.1802C7.66027 34.3571 5.76428 32.3347 5.76428 32.3347L6.4974 29.2253C6.4974 29.2253 8.41867 30.6663 9.93546 30.5652C10.9214 30.5146 11.3006 29.6804 11.25 29.1242C11.0983 26.7479 7.20524 26.8996 6.95244 22.9812C6.7502 19.6948 8.89899 16.3831 13.6516 16.0798C15.497 15.9534 16.4324 16.4337 16.4324 16.4337Z" fill="white"/>
<path d="M43.7092 25.1047C42.6221 24.5233 42.066 24.0177 42.066 23.3351C42.066 22.4756 42.8496 21.9195 44.0631 21.9195C45.4788 21.9195 46.7427 22.5009 46.7427 22.5009L47.7287 19.4673C47.7287 19.4673 46.8186 18.7595 44.1389 18.7595C40.3975 18.7595 37.7937 20.9083 37.7937 23.9166C37.7937 25.6356 39.0071 26.9249 40.625 27.8602C41.9396 28.5933 42.3946 29.1242 42.3946 29.9079C42.3946 30.7169 41.7373 31.3741 40.5239 31.3741C38.729 31.3741 37.01 30.4388 37.01 30.4388L35.9482 33.4724C35.9482 33.4724 37.5156 34.5341 40.17 34.5341C44.0125 34.5341 46.7933 32.6381 46.7933 29.2253C46.768 27.3799 45.3776 26.0654 43.7092 25.1047Z" fill="black"/>
<path d="M59.0288 18.7091C57.1329 18.7091 55.6413 19.6192 54.5038 20.9843L54.4532 20.959L56.0964 12.3639H51.8241L47.6529 34.2563H51.9252L53.3409 26.7734C53.897 23.9421 55.3633 22.1978 56.7284 22.1978C57.689 22.1978 58.0682 22.855 58.0682 23.7904C58.0682 24.3718 58.0177 25.1049 57.8913 25.6864L56.2733 34.2563H60.5456L62.2141 25.4083C62.3911 24.4729 62.5175 23.3606 62.5175 22.6022C62.5428 20.1754 61.2788 18.7091 59.0288 18.7091Z" fill="black"/>
<path d="M72.2246 18.7088C67.0675 18.7088 63.6547 23.3603 63.6547 28.5426C63.6547 31.8543 65.7024 34.534 69.5449 34.534C74.6009 34.534 78.0137 30.0089 78.0137 24.7001C78.039 21.6412 76.2441 18.7088 72.2246 18.7088ZM70.1263 31.2729C68.6601 31.2729 68.0534 30.0341 68.0534 28.4668C68.0534 26.0146 69.3174 22.0204 71.6431 22.0204C73.1599 22.0204 73.6655 23.335 73.6655 24.599C73.6655 27.2281 72.3763 31.2729 70.1263 31.2729Z" fill="black"/>
<path d="M88.9857 18.7088C86.1038 18.7088 84.4606 21.262 84.4606 21.262H84.4101L84.6629 18.9616H80.8709C80.6939 20.5036 80.34 22.8799 80.0114 24.6495L77.0283 40.3231H81.3006L82.4888 33.9778H82.5899C82.5899 33.9778 83.4747 34.534 85.0926 34.534C90.1233 34.534 93.4097 29.3769 93.4097 24.1692C93.4097 21.2873 92.1204 18.7088 88.9857 18.7088ZM84.8904 31.3234C83.7781 31.3234 83.1208 30.6914 83.1208 30.6914L83.8286 26.6972C84.3342 24.0175 85.7246 22.2479 87.2161 22.2479C88.5307 22.2479 88.9352 23.4614 88.9352 24.599C88.9352 27.3798 87.292 31.3234 84.8904 31.3234Z" fill="black"/>
<path d="M99.5267 12.566C98.1616 12.566 97.0745 13.6531 97.0745 15.0435C97.0745 16.3075 97.8835 17.1923 99.0969 17.1923H99.1475C100.487 17.1923 101.625 16.2822 101.65 14.7148C101.65 13.4761 100.816 12.566 99.5267 12.566Z" fill="black"/>
<path d="M93.5356 34.2307H97.8079L100.715 19.0628H96.4175L93.5356 34.2307Z" fill="black"/>
<path d="M111.61 19.0378H108.627L108.779 18.33C109.032 16.8637 109.891 15.5744 111.332 15.5744C112.091 15.5744 112.698 15.802 112.698 15.802L113.532 12.4397C113.532 12.4397 112.799 12.0605 111.206 12.0605C109.689 12.0605 108.172 12.4903 107.01 13.4762C105.543 14.7149 104.861 16.5098 104.532 18.33L104.406 19.0378H102.409L101.777 22.2736H103.774L101.499 34.2563H105.771L108.046 22.2736H111.004L111.61 19.0378Z" fill="black"/>
<path d="M121.924 19.0628C121.924 19.0628 119.245 25.8125 118.057 29.5034H118.006C117.93 28.3153 116.944 19.0628 116.944 19.0628H112.444L115.023 32.992C115.074 33.2954 115.048 33.4976 114.922 33.6999C114.416 34.6605 113.582 35.5959 112.596 36.2784C111.787 36.8599 110.877 37.239 110.169 37.4918L111.357 41.1322C112.217 40.9552 114.037 40.2221 115.554 38.8064C117.5 36.9863 119.321 34.1549 121.166 30.3124L126.399 19.0628H121.924Z" fill="black"/>
</svg>
