<svg width="140" height="48" viewBox="0 0 140 48" fill="none" xmlns="http://www.w3.org/2000/svg">
<g clip-path="url(#clip0_110_554)">
<path d="M21.0727 3.07812C9.4747 3.07812 0.0722656 12.4803 0.0722656 24.0783C0.0722656 35.6767 9.4747 45.0781 21.0727 45.0781C32.6719 45.0781 42.0733 35.6767 42.0733 24.0783C42.0733 12.4811 32.6719 3.07913 21.0724 3.07913L21.0727 3.07812ZM30.7033 33.3663C30.3271 33.9832 29.5196 34.1788 28.9028 33.8002C23.9721 30.7884 17.765 30.1063 10.455 31.7764C9.75055 31.9369 9.04839 31.4956 8.8879 30.7909C8.72665 30.0862 9.16625 29.3841 9.87243 29.2236C17.872 27.396 24.7339 28.1829 30.2695 31.5658C30.8864 31.9445 31.082 32.7494 30.7033 33.3663ZM33.2737 27.6482C32.7997 28.4186 31.7916 28.6619 31.0218 28.1879C25.3769 24.7182 16.7722 23.7134 10.0954 25.7401C9.22945 26.0017 8.31489 25.5137 8.05208 24.6493C7.79127 23.7833 8.27953 22.8705 9.14394 22.6072C16.7707 20.2931 26.2521 21.4141 32.7345 25.3976C33.5044 25.8715 33.7477 26.8796 33.2737 27.6485V27.6482ZM33.4944 21.6939C26.726 17.6738 15.5592 17.3042 9.09704 19.2654C8.05935 19.5802 6.96197 18.9944 6.6475 17.9567C6.33303 16.9185 6.91834 15.8218 7.95678 15.5064C15.3749 13.2544 27.7066 13.6895 35.4991 18.3155C36.4344 18.8695 36.7404 20.0749 36.1862 21.0071C35.6345 21.9404 34.4257 22.2481 33.4954 21.6939H33.4944ZM57.2074 22.4643C53.5812 21.5996 52.9367 20.9928 52.9367 19.7176C52.9367 18.5129 54.0702 17.7021 55.7579 17.7021C57.3929 17.7021 59.0129 18.3178 60.7132 19.5852C60.7633 19.6235 60.8285 19.6388 60.8912 19.6288C60.9564 19.6193 61.0116 19.5844 61.0492 19.532L62.8196 17.0363C62.8924 16.9335 62.8723 16.7918 62.7745 16.7133C60.7508 15.0901 58.4738 14.3009 55.8106 14.3009C51.896 14.3009 49.1601 16.6504 49.1601 20.012C49.1601 23.6168 51.5199 24.8933 55.5974 25.8785C59.0656 26.6777 59.6524 27.3473 59.6524 28.544C59.6524 29.8706 58.4687 30.6956 56.5629 30.6956C54.4464 30.6956 52.7185 29.9809 50.7876 28.3108C50.74 28.2681 50.6748 28.2506 50.6146 28.2531C50.5494 28.2581 50.4917 28.2882 50.4516 28.3359L48.4655 30.6981C48.3827 30.7984 48.3927 30.9439 48.488 31.0291C50.7349 33.0353 53.4984 34.0936 56.4826 34.0936C60.7006 34.0936 63.4265 31.789 63.4265 28.2205C63.434 25.2095 61.631 23.5419 57.2149 22.4675L57.2074 22.4643ZM72.9709 18.8883C71.1428 18.8883 69.6431 19.6085 68.4043 21.0843V19.4232C68.4043 19.292 68.299 19.1852 68.1686 19.1852H64.9211C64.7907 19.1852 64.6854 19.292 64.6854 19.4232V37.8802C64.6854 38.0106 64.7907 38.1185 64.9211 38.1185H68.1686C68.299 38.1185 68.4043 38.0106 68.4043 37.8802V32.0548C69.6431 33.4416 71.1428 34.1212 72.9709 34.1212C76.3688 34.1212 79.8094 31.5056 79.8094 26.5055C79.8144 21.5043 76.3739 18.888 72.9734 18.888L72.9709 18.8883ZM76.0328 26.5055C76.0328 29.0506 74.4655 30.8285 72.2186 30.8285C69.9992 30.8285 68.3241 28.9703 68.3241 26.5055C68.3241 24.0404 69.9992 22.1827 72.2186 22.1827C74.4279 22.1824 76.0328 24 76.0328 26.5052V26.5055ZM88.6241 18.8883C84.2481 18.8883 80.82 22.2576 80.82 26.5599C80.82 30.816 84.2255 34.1487 88.5714 34.1487C92.9624 34.1487 96.4005 30.7909 96.4005 26.5055C96.4005 22.2346 92.985 18.8888 88.6241 18.8888V18.8883ZM88.6241 30.8536C86.2969 30.8536 84.5415 28.9828 84.5415 26.5042C84.5415 24.0143 86.2367 22.2075 88.5714 22.2075C90.9136 22.2075 92.679 24.0775 92.679 26.5586C92.679 29.048 90.9738 30.8536 88.6241 30.8536ZM105.744 19.1852H102.171V15.5325C102.171 15.4015 102.065 15.2947 101.935 15.2947H98.6875C98.5571 15.2947 98.4493 15.4015 98.4493 15.5325V19.1852H96.8895C96.7591 19.1852 96.6538 19.292 96.6538 19.4232V22.2135C96.6538 22.3444 96.7591 22.4515 96.8895 22.4515H98.4493V29.6725C98.4493 32.5889 99.9013 34.0685 102.768 34.0685C103.931 34.0685 104.897 33.8278 105.807 33.3112C105.882 33.271 105.927 33.1908 105.927 33.1055V30.4474C105.927 30.3671 105.885 30.2894 105.814 30.2467C105.744 30.2016 105.656 30.1991 105.584 30.2367C104.959 30.5502 104.355 30.6956 103.678 30.6956C102.637 30.6956 102.171 30.2217 102.171 29.1634V22.4527H105.744C105.875 22.4527 105.98 22.3459 105.98 22.2148V19.4247C105.985 19.2935 105.88 19.1867 105.747 19.1867L105.744 19.1852ZM118.193 19.1995V18.7509C118.193 17.431 118.699 16.8425 119.833 16.8425C120.51 16.8425 121.054 16.9769 121.663 17.18C121.738 17.2036 121.816 17.1918 121.876 17.1469C121.939 17.102 121.974 17.0301 121.974 16.9538V14.2179C121.974 14.1133 121.909 14.0208 121.806 13.99C121.164 13.7986 120.342 13.6023 119.108 13.6023C116.111 13.6023 114.524 15.291 114.524 18.484V19.1711H112.964C112.834 19.1711 112.726 19.278 112.726 19.4089V22.2135C112.726 22.3444 112.834 22.4515 112.964 22.4515H114.524V33.587C114.524 33.7199 114.632 33.8252 114.762 33.8252H118.007C118.14 33.8252 118.245 33.7199 118.245 33.587V22.4522H121.277L125.921 33.587C125.395 34.7556 124.876 34.9888 124.168 34.9888C123.597 34.9888 122.992 34.8183 122.378 34.4798C122.32 34.4497 122.25 34.4447 122.19 34.4622C122.127 34.4848 122.075 34.5299 122.049 34.5901L120.949 37.005C120.896 37.1204 120.941 37.2533 121.051 37.3135C122.2 37.9354 123.236 38.2012 124.517 38.2012C126.914 38.2012 128.241 37.0828 129.407 34.0785L135.039 19.5245C135.07 19.4513 135.059 19.3685 135.014 19.3036C134.972 19.2391 134.899 19.2002 134.821 19.2002H131.441C131.338 19.2002 131.248 19.2647 131.215 19.3597L127.752 29.2487L123.96 19.3532C123.925 19.2612 123.837 19.2002 123.74 19.2002H118.193V19.1995ZM110.975 19.1852H107.728C107.597 19.1852 107.49 19.292 107.49 19.4232V33.587C107.49 33.7199 107.597 33.8252 107.728 33.8252H110.975C111.106 33.8252 111.214 33.7199 111.214 33.587V19.4242C111.214 19.293 111.108 19.1862 110.975 19.1862V19.1852ZM109.37 12.7356C108.084 12.7356 107.041 13.7768 107.041 15.063C107.041 16.35 108.084 17.3924 109.37 17.3924C110.657 17.3924 111.698 16.35 111.698 15.063C111.698 13.7771 110.654 12.7356 109.37 12.7356ZM137.813 23.7395C136.529 23.7395 135.528 22.7075 135.528 21.4544C135.528 20.2013 136.542 19.1576 137.826 19.1576C139.109 19.1576 140.11 20.1893 140.11 21.4414C140.11 22.6945 139.097 23.7395 137.813 23.7395ZM137.826 19.3848C136.654 19.3848 135.769 20.3152 135.769 21.4544C135.769 22.5932 136.649 23.511 137.813 23.511C138.984 23.511 139.869 22.5814 139.869 21.4414C139.869 20.3026 138.989 19.3848 137.826 19.3848ZM138.332 21.6764L138.979 22.5811H138.432L137.851 21.7511H137.352V22.5811H136.895V20.1828H137.963C138.523 20.1828 138.889 20.4679 138.889 20.9479C138.891 21.3411 138.663 21.5813 138.335 21.6764H138.332ZM137.946 20.5943H137.352V21.3529H137.946C138.242 21.3529 138.42 21.2077 138.42 20.9732C138.42 20.7264 138.242 20.5943 137.946 20.5943Z" fill="#1ED760"/>
</g>
<defs>
<clipPath id="clip0_110_554">
<rect width="140" height="48" fill="white"/>
</clipPath>
</defs>
</svg>
