<svg width="134" height="48" viewBox="0 0 134 48" fill="none" xmlns="http://www.w3.org/2000/svg">
<g clip-path="url(#clip0_110_561)">
<path d="M15.385 6H0.75V41L15.385 6Z" fill="#FA0C00"/>
<path d="M25.6821 6H40.298V41L25.6821 6Z" fill="#FA0C00"/>
<path d="M20.5337 18.9004L29.8486 41.0006H23.7372L20.9532 33.9644H14.1362L20.5337 18.9004Z" fill="#FA0C00"/>
<path d="M64.1736 28.2569L65.8993 33.2052C65.9565 33.3291 66.0423 33.3863 66.1948 33.3863H69.5127C69.6939 33.3863 69.7225 33.3005 69.6939 33.1194L62.8388 14.0796C62.8102 13.927 62.7816 13.8984 62.629 13.8984H58.5103C58.3959 13.8984 58.3291 13.9842 58.3291 14.1082C58.2719 15.1093 58.1861 15.4144 58.0622 15.7099L51.9507 33.0908C51.9221 33.3005 51.9889 33.3863 52.1605 33.3863H55.1256C55.3068 33.3863 55.3926 33.3291 55.4593 33.148L57.0897 28.2569H64.1736ZM58.0336 25.0248C58.9298 22.3171 60.112 18.8467 60.5887 16.8636H60.6173C61.2084 18.942 62.6004 23.0608 63.2297 25.0248H58.0336Z" fill="#FA0C00"/>
<path d="M78.5067 33.6833C80.2896 33.6833 82.1869 33.3591 84.1128 32.5297C84.2654 32.4725 84.294 32.4057 84.294 32.2627C84.2367 31.7288 84.17 30.9565 84.17 30.3654V12.4411C84.17 12.3267 84.17 12.2695 84.027 12.2695H80.7949C80.671 12.2695 80.6138 12.3267 80.6138 12.4793V18.5526C80.1084 18.4954 79.7557 18.4668 79.3362 18.4668C74.121 18.4668 70.9175 21.9086 70.9175 26.2085C70.9175 31.1949 74.2068 33.6833 78.5067 33.6833ZM80.6138 30.3654C80.0798 30.537 79.4887 30.6038 78.8881 30.6038C76.5236 30.6038 74.5881 29.269 74.5881 26.0274C74.5881 23.1576 76.5808 21.4605 79.2218 21.4605C79.7557 21.4605 80.2229 21.5177 80.6138 21.6702V30.3654Z" fill="#FA0C00"/>
<path d="M94.6048 18.4668C90.1524 18.4668 87.397 21.88 87.397 26.0941C87.397 29.8602 89.5898 33.6834 94.5381 33.6834C98.7236 33.6834 101.66 30.6038 101.66 25.9988C101.66 21.9372 99.1717 18.4668 94.6048 18.4668ZM94.4237 21.4605C96.9407 21.4605 98.0085 23.6248 98.0085 26.0941C98.0085 29.1451 96.4354 30.661 94.6048 30.661C92.3452 30.661 91.0104 28.7637 91.0104 26.0274C91.0104 23.2148 92.431 21.4605 94.4237 21.4605Z" fill="#FA0C00"/>
<path d="M105.002 12.2695C104.878 12.2695 104.792 12.3267 104.792 12.4793V32.768C104.792 32.8538 104.878 33.0064 105.002 33.035C106.422 33.4736 107.91 33.6833 109.445 33.6833C113.84 33.6833 118.111 30.9565 118.111 25.4648C118.111 21.4891 115.384 18.4668 111.113 18.4668C110.131 18.4668 109.216 18.6193 108.415 18.8863L108.377 12.5079C108.377 12.2981 108.32 12.2695 108.11 12.2695H105.002ZM114.46 25.8271C114.46 29.1164 112.209 30.661 109.778 30.661C109.273 30.661 108.825 30.6324 108.415 30.5084V21.8514C108.882 21.6702 109.445 21.5177 110.484 21.5177C112.829 21.5177 114.46 23.005 114.46 25.8271Z" fill="#FA0C00"/>
<path d="M130.173 26.895C131.622 26.895 132.814 26.8664 133.224 26.7711C133.377 26.7425 133.434 26.6853 133.463 26.5613C133.548 26.2372 133.586 25.5602 133.586 24.7308C133.586 21.9086 131.889 18.4668 127.504 18.4668C123.023 18.4668 120.534 22.1184 120.534 26.2372C120.534 29.8888 122.46 33.6834 127.856 33.6834C129.878 33.6834 131.184 33.3592 132.309 32.8253C132.423 32.7681 132.48 32.6727 132.48 32.5011V30.0318C132.48 29.8888 132.395 29.8602 132.309 29.9174C131.184 30.3941 129.963 30.6324 128.629 30.6324C125.606 30.6324 124.233 28.9639 124.148 26.895H130.173ZM124.148 24.3399C124.386 22.8907 125.301 21.3175 127.351 21.3175C129.611 21.3175 130.202 23.2148 130.202 24.0729C130.202 24.1015 130.202 24.2254 130.202 24.3113C130.078 24.3399 129.697 24.3399 128.571 24.3399H124.148Z" fill="#FA0C00"/>
</g>
<defs>
<clipPath id="clip0_110_561">
<rect width="133" height="48" fill="white" transform="translate(0.75)"/>
</clipPath>
</defs>
</svg>
