<svg width="164" height="48" viewBox="0 0 164 48" fill="none" xmlns="http://www.w3.org/2000/svg">
<path d="M163.858 21.8329V18.9512H160.279V14.4713L160.159 14.5084L156.798 15.5368L156.731 15.5569V18.9514H151.426V17.0603C151.426 16.1798 151.623 15.506 152.011 15.0566C152.396 14.6127 152.948 14.3869 153.65 14.3869C154.156 14.3869 154.679 14.506 155.206 14.7407L155.338 14.7997V11.7649L155.276 11.7421C154.784 11.5655 154.116 11.4766 153.288 11.4766C152.244 11.4766 151.296 11.7037 150.469 12.1539C149.641 12.6047 148.99 13.2482 148.534 14.0664C148.08 14.8837 147.849 15.8276 147.849 16.8722V18.9512H145.357V21.8329H147.849V33.9729H151.426V21.8329H156.731V29.5477C156.731 32.725 158.23 34.3351 161.186 34.3351C161.671 34.3351 162.183 34.2782 162.704 34.1668C163.236 34.0523 163.598 33.938 163.811 33.816L163.858 33.7881V30.8798L163.712 30.976C163.518 31.1053 163.276 31.2111 162.993 31.2897C162.708 31.3697 162.471 31.4098 162.286 31.4098C161.594 31.4098 161.082 31.2233 160.764 30.855C160.442 30.4835 160.279 29.8338 160.279 28.9249V21.8329H163.858ZM137.369 31.4103C136.071 31.4103 135.047 30.9798 134.326 30.1318C133.6 29.2795 133.232 28.0643 133.232 26.5205C133.232 24.9276 133.6 23.6809 134.326 22.8136C135.048 21.9519 136.062 21.5146 137.34 21.5146C138.58 21.5146 139.568 21.9323 140.275 22.7567C140.986 23.5854 141.346 24.822 141.346 26.4334C141.346 28.0647 141.007 29.3177 140.338 30.1559C139.674 30.9877 138.675 31.4103 137.369 31.4103ZM137.528 18.5893C135.051 18.5893 133.084 19.3151 131.681 20.7466C130.279 22.1783 129.568 24.1595 129.568 26.6357C129.568 28.9877 130.262 30.8795 131.631 32.2577C132.999 33.6364 134.862 34.3348 137.166 34.3348C139.567 34.3348 141.495 33.5988 142.897 32.1475C144.299 30.6978 145.01 28.7353 145.01 26.3169C145.01 23.9282 144.343 22.0223 143.028 20.6533C141.712 19.2836 139.862 18.5893 137.528 18.5893ZM123.801 18.5893C122.116 18.5893 120.722 19.0203 119.658 19.8701C118.586 20.7249 118.043 21.846 118.043 23.2027C118.043 23.9079 118.16 24.5344 118.391 25.0657C118.623 25.5987 118.983 26.0681 119.46 26.462C119.934 26.8527 120.665 27.262 121.634 27.6784C122.449 28.0136 123.057 28.2972 123.443 28.5207C123.82 28.7397 124.088 28.9599 124.239 29.1744C124.386 29.3842 124.46 29.6715 124.46 30.0259C124.46 31.0351 123.704 31.5262 122.149 31.5262C121.572 31.5262 120.915 31.4057 120.194 31.1683C119.478 30.9344 118.803 30.5919 118.191 30.1529L118.043 30.0463V33.4903L118.097 33.5156C118.603 33.7493 119.241 33.9463 119.994 34.1013C120.744 34.2565 121.426 34.3354 122.019 34.3354C123.847 34.3354 125.32 33.9024 126.394 33.0475C127.475 32.1868 128.023 31.0392 128.023 29.6356C128.023 28.6231 127.728 27.7548 127.147 27.0545C126.569 26.3599 125.567 25.7222 124.169 25.1586C123.055 24.7116 122.342 24.3405 122.048 24.0557C121.764 23.7805 121.62 23.3913 121.62 22.8985C121.62 22.4617 121.798 22.1117 122.163 21.8283C122.531 21.5435 123.043 21.3986 123.685 21.3986C124.281 21.3986 124.891 21.4927 125.497 21.6772C126.103 21.8617 126.636 22.1089 127.08 22.4111L127.226 22.511V19.2441L127.17 19.22C126.76 19.0442 126.219 18.8938 125.563 18.7718C124.909 18.6505 124.317 18.5893 123.801 18.5893ZM108.718 31.4103C107.42 31.4103 106.396 30.9798 105.675 30.1318C104.949 29.2795 104.581 28.0647 104.581 26.5205C104.581 24.9276 104.949 23.6809 105.675 22.8136C106.397 21.9519 107.41 21.5146 108.689 21.5146C109.929 21.5146 110.916 21.9323 111.624 22.7567C112.335 23.5854 112.695 24.822 112.695 26.4334C112.695 28.0647 112.356 29.3177 111.687 30.1559C111.023 30.9877 110.024 31.4103 108.718 31.4103ZM108.877 18.5893C106.4 18.5893 104.432 19.3151 103.03 20.7466C101.628 22.1783 100.917 24.1595 100.917 26.6357C100.917 28.9886 101.611 30.8795 102.98 32.2577C104.348 33.6364 106.211 34.3348 108.515 34.3348C110.916 34.3348 112.844 33.5988 114.247 32.1475C115.648 30.6978 116.359 28.7353 116.359 26.3169C116.359 23.9282 115.692 22.0223 114.377 20.6533C113.061 19.2836 111.21 18.5893 108.877 18.5893ZM95.487 21.5526V18.9512H91.9536V33.9726H95.487V26.2886C95.487 24.982 95.7833 23.9086 96.3679 23.0978C96.945 22.2967 97.7141 21.8907 98.6531 21.8907C98.9714 21.8907 99.3287 21.9432 99.7156 22.047C100.099 22.1502 100.376 22.2623 100.54 22.3802L100.688 22.4878V18.9255L100.631 18.901C100.302 18.7611 99.8362 18.6906 99.2472 18.6906C98.3592 18.6906 97.5646 18.9759 96.884 19.5377C96.2866 20.0314 95.8548 20.7084 95.5246 21.5526H95.487ZM85.6258 18.5893C84.0047 18.5893 82.5588 18.9369 81.3289 19.6222C80.0965 20.309 79.1434 21.2895 78.4949 22.5364C77.8493 23.7802 77.5215 25.2331 77.5215 26.8533C77.5215 28.2726 77.8393 29.5751 78.4675 30.723C79.096 31.8728 79.9855 32.7724 81.1116 33.3963C82.2361 34.0194 83.5357 34.3353 84.9746 34.3353C86.6538 34.3353 88.0876 33.9995 89.2371 33.3375L89.2835 33.3108V30.0736L89.135 30.182C88.6143 30.5613 88.0324 30.8641 87.4063 31.0822C86.7818 31.3001 86.2124 31.4103 85.7131 31.4103C84.3266 31.4103 83.2136 30.9765 82.4057 30.1212C81.596 29.2647 81.1855 28.0621 81.1855 26.5488C81.1855 25.026 81.6136 23.7925 82.4573 22.8824C83.2985 21.9749 84.4136 21.5146 85.7714 21.5146C86.9328 21.5146 88.0646 21.9079 89.1353 22.6846L89.2835 22.7922V19.3812L89.2356 19.3543C88.8327 19.1287 88.2832 18.9425 87.6009 18.8012C86.9216 18.6603 86.2571 18.5893 85.6258 18.5893ZM75.088 18.9514H71.5545V33.9726H75.088V18.9514ZM73.3574 12.5522C72.7758 12.5522 72.2686 12.7502 71.8518 13.1425C71.4334 13.5359 71.2211 14.0312 71.2211 14.6158C71.2211 15.1912 71.4308 15.6775 71.8453 16.0605C72.2571 16.4423 72.766 16.6359 73.3575 16.6359C73.9489 16.6359 74.4596 16.4423 74.8763 16.0611C75.2958 15.6775 75.5085 15.1914 75.5085 14.6158C75.5085 14.0517 75.3015 13.5614 74.8936 13.1583C74.4861 12.756 73.969 12.5522 73.3574 12.5522ZM64.5411 17.8431V33.9726H68.1472V13.012H63.1562L56.8124 28.5809L50.6561 13.012H45.4619V33.9724H48.8507V17.8415H48.967L55.4679 33.9726H58.0253L64.4248 17.8431H64.5411Z" fill="#706D6E"/>
<path d="M16.6225 22.6303H0V6.00781H16.6225V22.6303Z" fill="#F1511B"/>
<path d="M34.9757 22.6303H18.3535V6.00781H34.9757V22.6303Z" fill="#80CC28"/>
<path d="M16.622 40.9915H0V24.3691H16.622V40.9915Z" fill="#00ADEF"/>
<path d="M34.9757 40.9915H18.3535V24.3691H34.9757V40.9915Z" fill="#FBBC09"/>
</svg>
