<svg width="164" height="48" viewBox="0 0 164 48" fill="none" xmlns="http://www.w3.org/2000/svg">
<path d="M39.6255 32.5728L40.64 32.3639C41.5352 32.1252 41.7739 32.0058 41.7739 30.2155V16.1615C41.7739 14.3712 41.5053 14.222 40.64 14.0131L39.6255 13.8042V12.9688H55.7981L56.0965 18.9067H55.1715C54.4255 17.2655 53.9481 16.4002 53.5005 15.7437C52.5456 14.3712 51.919 14.2518 49.8602 14.2518C48.3384 14.2518 47.5924 14.4308 47.1448 14.5502V22.1591H47.9505C50.0392 22.1591 50.5166 21.9204 50.8747 21.2639C51.2924 20.5179 51.5311 19.951 51.7997 18.9962H52.6948V26.6946H51.7997C51.5311 25.7696 51.2924 25.1728 50.8747 24.3075C50.5166 23.5615 50.1287 23.4123 47.9505 23.4123H47.1448V29.1413C47.1448 31.797 47.2344 32.0954 50.1287 32.0954C52.5158 32.0954 52.9932 31.797 53.9779 30.3349C54.515 29.5292 55.0819 28.276 55.8577 26.3962H56.8126L56.3948 33.4083H39.6553L39.6255 32.5728ZM59.319 21.3833C58.6327 19.7123 58.3045 19.2946 57.5585 19.0558L56.9916 18.8768V18.101H65.8537V18.8768L65.0481 19.0857C64.4215 19.2647 64.1231 19.5631 64.1231 20.2792C64.1231 20.697 64.2723 21.2042 64.511 21.8607L66.9876 28.6639H67.1368L69.5239 21.8607C69.7924 21.1446 69.9118 20.6373 69.9118 20.2196C69.9118 19.5631 69.6134 19.2349 68.9868 19.0857L68.1811 18.8768V18.101H73.6416V18.8768L73.0747 19.0558C72.2989 19.3244 71.9706 19.772 71.2545 21.7115L66.6892 33.4083H64.1827L59.319 21.3833ZM72.9553 25.68C72.9553 20.5478 76.7448 17.7131 80.6537 17.7131C84.7118 17.7131 87.2481 19.7421 87.3376 25.0833H77.5803C77.6698 29.9171 79.49 31.23 82.5335 31.23C84.3537 31.23 85.7561 30.6929 86.8602 30.126V31.1107C85.8158 32.2446 83.5779 33.7962 80.6239 33.7962C75.4916 33.7365 72.9553 30.6929 72.9553 25.68ZM77.5803 23.9494L82.6231 23.6808C82.6231 20.13 82.1456 18.8171 80.3852 18.8171C78.8932 18.8171 77.6997 20.2494 77.5803 23.9494ZM95.0956 19.9808C95.9311 19.0857 97.6319 17.6236 99.6013 17.6236C100.855 17.6236 101.899 18.6381 101.899 19.9212C101.899 21.2042 100.884 22.2188 99.6013 22.2188C98.6763 22.2188 97.8408 21.6518 97.5126 20.8462C97.3335 20.5179 96.9456 20.4284 96.6771 20.4284C96.14 20.4284 95.5134 20.8163 95.1255 21.1744V30.7228C95.1255 32.0954 95.2448 32.2446 96.14 32.3937L97.1247 32.6026V33.4083H88.6206V32.6026L89.3965 32.3937C90.3811 32.1252 90.5005 31.976 90.5005 30.7228V21.5623C90.5005 20.3091 90.3513 20.2196 89.5158 19.6526L88.5311 18.9962V18.3994L94.7376 17.6833L95.0658 17.922L95.0061 19.951L95.0956 19.9808ZM102.794 32.6026L103.57 32.3937C104.555 32.1252 104.674 31.976 104.674 30.7228V21.5623C104.674 20.3091 104.525 20.2196 103.689 19.6526L102.705 18.9962V18.3994L108.911 17.6833L109.239 17.8921L109.18 19.772H109.299C110.85 18.6679 112.79 17.6833 114.938 17.6833C117.445 17.6833 118.788 18.9663 118.788 21.622V30.6929C118.788 31.976 118.907 32.1252 119.862 32.3639L120.638 32.5728V33.3784H112.432V32.5728L113.148 32.3937C114.043 32.155 114.133 32.0655 114.133 30.6929V22.7857C114.133 20.9954 113.476 20.4284 112.104 20.4284C111.059 20.4284 110.015 20.6671 109.359 20.8163V30.7228C109.359 32.1252 109.448 32.1849 110.343 32.4236L111.059 32.6026V33.4083H102.854V32.6026H102.794ZM121.205 25.7696C121.205 20.13 125.203 17.7131 129.171 17.7131C133.438 17.7131 137.168 20.2792 137.168 25.6204C137.168 31.2599 133.23 33.7365 129.171 33.7365C124.905 33.7365 121.205 31.1704 121.205 25.7696ZM132.215 25.9187C132.215 19.9808 131.081 18.847 129.052 18.847C127.202 18.847 126.098 20.1897 126.098 25.2623C126.098 31.2897 127.083 32.6026 129.231 32.6026C130.992 32.6026 132.215 31.5583 132.215 25.9187ZM139.705 29.6784V19.8317H137.855V19.1155C140.152 18.2204 141.913 16.5196 142.748 14.1623H144.419V18.101H148.328L147.94 19.8317H144.419V29.38C144.419 30.8421 144.867 31.4389 146.329 31.4389C147.045 31.4389 147.91 31.2897 148.447 31.1704V32.0058C147.731 32.6623 146.269 33.7365 143.792 33.7365C141.137 33.7365 139.705 32.5728 139.705 29.6784ZM149.044 25.68C149.044 20.5478 152.834 17.7131 156.742 17.7131C160.8 17.7131 163.337 19.7421 163.426 25.0833H153.699C153.788 29.9171 155.609 31.23 158.652 31.23C160.472 31.23 161.875 30.6929 162.979 30.126V31.1107C161.934 32.2446 159.696 33.7962 156.742 33.7962C151.58 33.7365 149.044 30.6929 149.044 25.68ZM153.669 23.9494L158.712 23.6808C158.712 20.13 158.234 18.8171 156.474 18.8171C154.982 18.8171 153.788 20.2494 153.669 23.9494Z" fill="black"/>
<path d="M9.72774 15.266C9.72774 15.624 9.69791 16.2208 9.33984 16.6087C8.95194 16.9668 8.35516 16.9966 7.9971 16.9966H4.17775C3.07371 16.9966 2.41726 16.9966 1.96968 17.0563C1.73097 17.0861 1.43259 17.2055 1.28339 17.2652C1.22371 17.295 1.22371 17.2652 1.25355 17.2353L9.96645 8.37324C9.99629 8.3434 10.0261 8.3434 9.99629 8.40307C9.93662 8.55227 9.81726 8.85066 9.78742 9.08937C9.72775 9.53695 9.72774 10.1934 9.72774 11.2974V15.266ZM17.8439 42.0611C16.8294 41.4047 16.2923 40.5394 16.0834 40.0023C15.8745 39.495 15.7552 38.9281 15.7552 38.3611C15.7552 35.8845 17.7842 33.8555 20.2906 33.8555C21.0366 33.8555 21.6334 34.4523 21.6334 35.1982C21.6334 35.7055 21.3648 36.1232 20.9471 36.3619C20.7979 36.4515 20.589 36.5111 20.4398 36.541C20.2906 36.5708 19.7237 36.6305 19.4552 36.8692C19.1568 37.1079 18.9181 37.4958 18.9181 37.9136C18.9181 38.3611 19.0971 38.7789 19.3955 39.0773C19.9326 39.6144 20.6487 39.9128 21.4245 39.9128C23.4535 39.9128 25.0947 38.2716 25.0947 36.2426C25.0947 34.4224 23.8713 32.8111 22.26 32.095C22.0213 31.9757 21.6334 31.8861 21.2753 31.7966C20.8277 31.7071 20.41 31.6474 20.3802 31.6474C19.1269 31.4982 15.9939 30.5136 15.785 27.7386C15.785 27.7386 14.86 31.916 13.01 33.0499C12.831 33.1394 12.5923 33.2289 12.3237 33.2886C12.0552 33.3482 11.7568 33.3781 11.6673 33.3781C8.65355 33.5571 5.46081 32.6023 3.25275 30.3345C3.25275 30.3345 1.76081 29.1111 0.985005 25.6797C0.805973 24.8442 0.447908 23.3523 0.239037 21.9499C0.149521 21.4426 0.119682 21.0547 0.0898438 20.6966C0.0898438 19.2345 0.985005 18.2499 2.11888 18.1007C2.14871 18.1007 2.23823 18.1007 2.29791 18.1007C2.9842 18.1007 8.20597 18.1007 8.20597 18.1007C9.25033 18.1007 9.8471 17.8321 10.235 17.474C10.7423 16.9966 10.8616 16.3103 10.8616 15.5047C10.8616 15.5047 10.8616 10.074 10.8616 9.38775C10.8616 9.35791 10.8616 9.23856 10.8616 9.20872C11.0108 8.10469 11.9955 7.17969 13.4576 7.17969C13.4576 7.17969 13.9052 7.17969 14.1737 7.17969C14.4721 7.17969 14.8302 7.20953 15.1584 7.23936C15.3971 7.2692 15.606 7.32888 15.964 7.4184C17.7842 7.86598 18.1721 9.71598 18.1721 9.71598C18.1721 9.71598 21.6035 10.3128 23.3342 10.6111C24.9753 10.9095 29.0334 11.1781 29.8092 15.266C31.6294 24.9934 30.5253 34.4224 30.4358 34.4224C29.1527 43.6128 21.514 43.1652 21.514 43.1652C19.8729 43.1652 18.6495 42.6281 17.8439 42.0611ZM24.7068 22.5168C23.7221 22.4273 22.8866 22.8152 22.5882 23.5611C22.5285 23.7103 22.4689 23.8894 22.4987 23.9789C22.5285 24.0684 22.5882 24.0982 22.6479 24.1281C23.006 24.3071 23.6027 24.3966 24.4681 24.4861C25.3334 24.5757 25.9302 24.6353 26.3181 24.5757C26.3777 24.5757 26.4374 24.5458 26.4971 24.4563C26.5568 24.3668 26.5269 24.1878 26.5269 24.0386C26.4076 23.2031 25.6914 22.6361 24.7068 22.5168Z" fill="#00A82D"/>
</svg>
